<svg xmlns="http://www.w3.org/2000/svg" width="35" height="35" viewBox="0 0 35 35"><defs><style>.a{fill:red;}.b{fill:#f7fddc;}</style></defs><g transform="translate(-101.815 -142.815)"><g transform="translate(101.815 142.815)"><rect class="a" width="35" height="35" rx="17.5" transform="translate(0 0)"/></g><path class="b" d="M1.2-3.66A1.249,1.249,0,0,1,1.932-4.3a5.133,5.133,0,0,1,1.536-.168,2.11,2.11,0,0,1,1.512.456,1.936,1.936,0,0,1,.468,1.44v.384a7.255,7.255,0,0,1-.036.852,2.161,2.161,0,0,1-.228.66q-.384.7-1.836.7a2.8,2.8,0,0,1-1.92-.468A2.6,2.6,0,0,1,.96-2.256,3.187,3.187,0,0,1,1.2-3.66Zm3.216-2.8a4.991,4.991,0,0,1-1.224.12,4.991,4.991,0,0,1-1.224-.12.975.975,0,0,1-.636-.432,1.626,1.626,0,0,1-.216-.552,5.525,5.525,0,0,1-.036-.744v-7.608a5.817,5.817,0,0,1,.036-.756,1.517,1.517,0,0,1,.228-.564,1.068,1.068,0,0,1,.648-.444,4.556,4.556,0,0,1,1.224-.132,4.556,4.556,0,0,1,1.224.132,1,1,0,0,1,.636.456,1.725,1.725,0,0,1,.216.576,5.817,5.817,0,0,1,.036.756V-8.16a5.525,5.525,0,0,1-.036.744,1.428,1.428,0,0,1-.228.54A1.043,1.043,0,0,1,4.416-6.456Z" transform="translate(115.855 169.503)"/></g></svg>