<svg xmlns="http://www.w3.org/2000/svg"  viewBox="0 0 238.943 179.141"><defs><style>.a{fill:#2c7995;}.b{fill:none;stroke:#2c7995;stroke-linecap:round;stroke-width:3px;}.c{fill:#ff8000;}.d{fill:#fff;}.e,.f{fill:#222221;}.f{opacity:0.11;mix-blend-mode:multiply;isolation:isolate;}</style></defs><g transform="translate(-68.823 -195.272)"><g transform="translate(2178 870.409)"><g transform="translate(-2109.177 -591.93)"><g transform="translate(0 0)"><path class="a" d="M74.916,122.623c1.929.742,2.652-.554,3.865-1.65,9.061-8.164,36.8-45.551,40.326-49.189a2.663,2.663,0,0,0,.375-3.677A10.582,10.582,0,0,0,111.117,64H1.676c-3.268,0-8.24-.192-8.364,4.107S72.987,121.881,74.916,122.623Z" transform="translate(6.688 -63.999)"/><path class="a" d="M115.364,126.66a2.653,2.653,0,0,0-2.842.385c-14.242,18-28.645,37.658-36.463,44.7-4.388,3.961-14.875-.005-14.875-.005s-51.905-31.228-67.8-44.7a2.666,2.666,0,0,0-2.842-.385A2.667,2.667,0,0,0-11,129.078L4.67,196.093a10.67,10.67,0,0,0,10.659,10.659H121.921a10.67,10.67,0,0,0,10.659-10.659l-15.67-67.015A2.663,2.663,0,0,0,115.364,126.66Z" transform="translate(12.978 -110.818)"/></g></g><line class="b" x2="89.748" transform="translate(-1961.482 -581.346)"/><line class="b" x2="62.681" transform="translate(-1952.935 -555.703)"/><line class="b" x2="44.162" transform="translate(-1945.812 -530.061)"/></g><g transform="translate(69 195.272)"><path class="c" d="M419.928,76.855c-1-3.36-5.1-4.625-7.332-1.643-1.306,1.746-1.288,4.154-1.9,6.172a21.726,21.726,0,0,1-2.209,4.856,27.805,27.805,0,0,0-6.635-5.308c.418-.034.838-.061,1.264-.073a2.288,2.288,0,0,0,1.144-4.226,19.962,19.962,0,0,0-12.688-3.668l1.523-2.678a2.272,2.272,0,0,0-1.943-3.387,17.733,17.733,0,0,0-8.416,2.09,15.731,15.731,0,0,1,.311-1.939,2.209,2.209,0,0,0-2.68-2.68,15.833,15.833,0,0,0-8.927,4.909,13.4,13.4,0,0,0-10.477-6.121c-1.9-.126-2.344,2.16-1.4,3.374a16.654,16.654,0,0,1,1.811,2.889,34.593,34.593,0,0,0-15.941.074c-2.343.548-2,3.712,0,4.416a27.619,27.619,0,0,1,3.4,1.458,50.845,50.845,0,0,0-10.562,5.64c-1.746,1.217-1.262,4.3,1.149,4.243l2.63-.066a51.8,51.8,0,0,0-3.085,4.646c-1.74-.664-3.309-1.44-4.184-3.264-1.021-2.129-.122-4.494-.632-6.728-.861-3.772-5.291-4.775-6.743-.805-2.2,6,2.088,15.183,8.653,16.509-.453,1.042-.88,2.1-1.27,3.18-.694,1.917,1.663,3.326,3.24,2.49.04-.021.08-.037.12-.058a38.373,38.373,0,0,0-3.55,12.78,2.2,2.2,0,0,0,3.29,1.888,28.267,28.267,0,0,1,2.639-1.68,36.687,36.687,0,0,0,2.032,15.444,2.221,2.221,0,0,0,4,.522,24.559,24.559,0,0,1,2.366-2.7,26.074,26.074,0,0,0,6.3,9.707,2.21,2.21,0,0,0,3.656-.965,10.045,10.045,0,0,1,1.253-2.7,20.63,20.63,0,0,0,3.065,2.625c-1.232,1.808-1.344,4.405-.893,6.724a5.558,5.558,0,0,0-2.732-.05c-1.3.333-2.859,1.445-2.581,2.984.661,3.66,7.631,2.028,9.514.559,1.138-.888.039-2.438-1.133-2.432-.971-2.333-.491-4.454.03-6.692a4.583,4.583,0,0,0,1.921.181,3.884,3.884,0,0,0,2.545-1.643,14.884,14.884,0,0,0,.817-1.987,22.7,22.7,0,0,1,3,3.3,2.3,2.3,0,0,0,2.537,1.032q1.487-.617,2.918-1.313a17.727,17.727,0,0,1,.374,8.208,1.634,1.634,0,0,0-.008.6,1.691,1.691,0,0,0,1.369,2.572c2.393-.093,7.264.433,6.9-3.432-.25-2.658-2.773-2.46-4.972-1.743a16.685,16.685,0,0,0-1.08-7.543,52.959,52.959,0,0,0,6.616-4.306A5.153,5.153,0,0,0,390,133.225a4.61,4.61,0,0,0,6.123-.45,14.492,14.492,0,0,0,4.1-7.209c.085-.343.393-1.614.542-2.67.76.5,1.728.948,2.411,1.359a2.245,2.245,0,0,0,3.055-.8,16.09,16.09,0,0,0,.562-12.087l2.735.243c1.882.168,2.622-2.019,1.968-3.428a27.429,27.429,0,0,0-5.267-7.618c.5-.025.994-.05,1.49-.082,1.645-.106,3.2-2.011,2.065-3.6a30.813,30.813,0,0,0-2.5-3.071,14.422,14.422,0,0,0,8.052-4.765C418.07,85.968,421.214,81.183,419.928,76.855Z" transform="translate(-326.825 -63.154)"/><path class="d" d="M363.141,90.048a11.112,11.112,0,0,0,.6,18.709,4.85,4.85,0,0,0,1.457.587,10.74,10.74,0,0,0,2.949.763,11.95,11.95,0,0,0,13-11.847C381.095,89.7,369.7,85.552,363.141,90.048Z" transform="translate(-334.755 -69.464)"/><path class="d" d="M405.476,89.185c-4.607-1.067-10.047.673-12.418,4.957-2.276,4.11-1.049,10.387,3.481,12.434a5.857,5.857,0,0,0,1.123.375,9.362,9.362,0,0,0,4,.771,10.878,10.878,0,0,0,9.71-7.819A8.2,8.2,0,0,0,405.476,89.185Z" transform="translate(-343.223 -69.632)"/><path class="e" d="M371.223,98.256c-3.323.093-6.707,3.033-5.373,6.532a.542.542,0,0,0,1.044-.288c-.6-2.881,2.393-4.834,4.954-4.623a5.186,5.186,0,0,1,4.638,5.017c.091.97,1.56,1.009,1.542,0A6.686,6.686,0,0,0,371.223,98.256Z" transform="translate(-336.578 -71.993)"/><path class="e" d="M403.664,96.817c-2.925-.251-5.8,2.783-4.875,5.706a.636.636,0,0,0,1.243-.168c.074-1.879,1.363-3.968,3.513-3.775,1.986.179,3,2.383,2.569,4.124a.852.852,0,0,0,1.642.453A4.964,4.964,0,0,0,403.664,96.817Z" transform="translate(-344.903 -71.628)"/><path class="d" d="M374.687,130.4l-1.263-.5a1.076,1.076,0,0,0-.542-.351c-.163-.043-.323-.08-.483-.114a.926.926,0,0,0-.183-.036c-.033-.007-.067-.01-.1-.016l-.033-.013v.007c-.12-.02-.238-.043-.363-.057a1.354,1.354,0,0,0-1.344,1.187,1.313,1.313,0,0,0,.276,1,15.822,15.822,0,0,1-.3,1.8c-.272,1.041.973,2.221,1.962,1.509l2.695-1.942A1.376,1.376,0,0,0,374.687,130.4Z" transform="translate(-337.777 -79.816)"/><path class="d" d="M407.888,126.22c0,.219-.011.443-.021.668a3.322,3.322,0,0,0-.309-.172c-.661-.313-1.725.224-1.395,1.073a4.211,4.211,0,0,0,.952,1.4c.363.376.83.658,1.181,1.026a1.409,1.409,0,0,0,2.338-.617,23.692,23.692,0,0,0,.155-3.381C410.833,124.355,407.911,124.352,407.888,126.22Z" transform="translate(-346.789 -78.683)"/><path class="e" d="M401.744,117.2c-4.172,6.791-11.668,10.427-19.527,10.607-7.572.174-16.943-2.034-21.277-8.79-.368-.574-1.462-.206-1.167.492,3.372,8,14.073,10.184,21.869,10.049,8.671-.151,17.043-3.893,21.633-11.464A.887.887,0,0,0,401.744,117.2Z" transform="translate(-335.11 -76.658)"/><path class="f" d="M380.356,104.459c-1.517,6.6-6.468,8.885-12.875,8.775-6.791-.117-9.176-5.107-10.055-11.088a.145.145,0,0,0-.278,0,10.437,10.437,0,0,0,9.859,12.313c6.672.349,13.717-2.325,14.478-9.846C381.552,103.965,380.5,103.832,380.356,104.459Z" transform="translate(-334.427 -72.947)"/><path class="f" d="M411.07,100.709c-1.146,4.76-3.485,8.769-8.686,9.753-5.382,1.016-9.569-2.481-10.6-7.578-.082-.406-.647-.272-.679.091-.488,5.646,5.252,9.281,10.41,8.894,5.561-.416,10.794-5.246,10.552-11.025A.509.509,0,0,0,411.07,100.709Z" transform="translate(-343.005 -72.52)"/><path class="f" d="M359.853,77.223a14.3,14.3,0,0,1-5.465-.2c-1.693-.471-4.526-2.411-2.492-4.31.287-.268-.079-.719-.411-.533-1.939,1.082-1.715,3.54-.234,4.934,2.182,2.055,6.058,2.2,8.787,1.469C360.763,78.383,360.647,77.135,359.853,77.223Z" transform="translate(-332.683 -65.415)"/><path class="f" d="M350.917,86.482a14.749,14.749,0,0,1-4.317,2.834,11.828,11.828,0,0,1-1.753.56,4.614,4.614,0,0,1-1.971.106q-2.15-.811-.848-2.539c.19-.129.074-.5-.168-.4-2.1.885-1.109,3.476.718,4.019,3.106.924,7.194-1.547,9.185-3.734A.6.6,0,0,0,350.917,86.482Z" transform="translate(-330.314 -68.987)"/><path class="f" d="M348.429,100.432a44.084,44.084,0,0,1-2.842,4.768,21.8,21.8,0,0,1-2.01,2.42c-.852.874-5.237,4.605-5.492-.076a.272.272,0,0,0-.531-.072c-.848,2.907,2.774,3.855,4.86,2.816,3.33-1.659,6.029-5.954,7.246-9.338C349.919,100.229,348.793,99.771,348.429,100.432Z" transform="translate(-329.495 -72.461)"/><path class="f" d="M345.326,124.1a20.71,20.71,0,0,1-2.028,3.386,12.864,12.864,0,0,1-1.27,1.332q-.339.31-.694.6a1.565,1.565,0,0,1-2.338.072.426.426,0,0,0-.822-.226,1.519,1.519,0,0,0,.64,1.828c.934.618,2.071.126,2.917-.407a11.741,11.741,0,0,0,4.846-6.057A.688.688,0,0,0,345.326,124.1Z" transform="translate(-329.66 -78.417)"/><path class="f" d="M354.581,142.866c-.576,1.318-.871,2.73-1.482,4.04-.533,1.143-2.6,4.648-3.984,2.479a.428.428,0,0,0-.778.328c.536,1.779,2.679,1.6,3.867.607,1.882-1.567,3.1-4.623,3.513-6.975C355.828,142.711,354.884,142.171,354.581,142.866Z" transform="translate(-332.237 -83.145)"/><path class="f" d="M371.206,151.3a.76.76,0,0,0-1.52,0,20.092,20.092,0,0,1-.477,4.516c-.366,1.41-1.475,4.292-3.469,2.948a.116.116,0,0,0-.158.157c.949,1.4,2.675,1.074,3.7-.111C370.88,156.967,371.374,153.647,371.206,151.3Z" transform="translate(-336.581 -85.167)"/><path class="f" d="M392.782,155.951a5.6,5.6,0,0,1-9.117-.136,4.477,4.477,0,0,0-.416-3.17c-.479-.836-1.578-.228-1.451.612.268,1.779.224,3.492-1.327,4.714a4.417,4.417,0,0,1-5.032.028.515.515,0,0,0-.621.805,5.369,5.369,0,0,0,6.725.383,5.534,5.534,0,0,0,1.774-2.283,6.453,6.453,0,0,0,10.713.01C394.538,156.179,393.366,155.261,392.782,155.951Z" transform="translate(-338.873 -85.589)"/><path class="f" d="M417.879,151.683c-2.667,4.345-9,2.909-9.09-2.367a.616.616,0,0,0-1.232,0c-.5,6.6,8.834,9.294,11.574,3.1A.726.726,0,0,0,417.879,151.683Z" transform="translate(-347.151 -84.702)"/><path class="f" d="M430.754,139.7a3.45,3.45,0,0,1-3.113,3.137,3.585,3.585,0,0,1-3.332-3.076c-.129-.581-.985-.425-1.006.136a4.474,4.474,0,0,0,4.338,4.5,4.627,4.627,0,0,0,4.56-4.5C432.211,139.084,430.9,138.858,430.754,139.7Z" transform="translate(-351.12 -82.296)"/><path class="f" d="M438.357,123.924c-.159-.7-1.142-.49-1.187.16-.133,1.892-2.07,2.041-3.522,1.555a7.461,7.461,0,0,1-2.828-1.843c-.465-.451-1.07.209-.691.691a6.8,6.8,0,0,0,5.418,2.723A2.829,2.829,0,0,0,438.357,123.924Z" transform="translate(-352.809 -78.348)"/><path class="f" d="M433.808,106.689a.622.622,0,0,0-.147,1.125.861.861,0,0,1,.468,1.211c-.336.693-1.272.753-1.961.731a15.917,15.917,0,0,1-3.971-.9c-.462-.138-.774.564-.333.789,1.835.934,5.4,2.338,7.213.645C436.317,109.134,435.821,106.315,433.808,106.689Z" transform="translate(-352.216 -74.109)"/><path class="f" d="M432.974,92.253c-.483-.35-1.084.324-.8.8.884,1.442,2.759,3.49.78,4.9a4,4,0,0,1-2.551.62c-.489-.016-2.987-.083-2.934-.986.033-.556-.884-.693-.984-.133-.5,2.834,5.206,2.782,6.787,2.048C436.7,97.912,435.487,94.079,432.974,92.253Z" transform="translate(-351.915 -70.458)"/><path class="f" d="M427.163,80.206a.636.636,0,0,0-.994.767c.78,1.787-.641,3-2.309,3.308a4.792,4.792,0,0,1-3.94-1.067c-.495-.406-1.2.266-.717.716a5.955,5.955,0,0,0,6.337,1.247C427.337,84.412,429.14,81.81,427.163,80.206Z" transform="translate(-350.047 -67.406)"/><path class="f" d="M408.35,68.94a.325.325,0,0,0,.313.539,1.937,1.937,0,0,1,2.532,1.359c.334,1.243-.617,2.361-1.563,3.059-1.539,1.134-3.51,1.508-5.134,2.5a.754.754,0,0,0,.761,1.3c2.541-1.507,6.89-2.447,7.209-6.051C412.641,69.695,410.117,67.109,408.35,68.94Z" transform="translate(-346.295 -64.454)"/><path class="f" d="M399.076,65.521c-.714-1.088-2.478-1.784-3.423-.6-.291.364.071.959.53.687a1.389,1.389,0,0,1,1.98,1.122c.151,1.2-.741,2.147-1.2,3.16-.272.6.453,1.3.976.753C399.131,69.4,400.132,67.13,399.076,65.521Z" transform="translate(-344.131 -63.444)"/><path class="f" d="M373.294,69.844c-1.734-1.665-1.713-3.551-.965-5.673a.51.51,0,0,0-.846-.492c-1.921,2.007-1,5.621,1.079,7.115C373.125,71.2,373.782,70.312,373.294,69.844Z" transform="translate(-337.806 -63.251)"/><path class="f" d="M375.085,140.517c-.9,1.05-1.742,2.257-3.123,2.7-1.493.483-3.646-.476-3.308-2.316a.617.617,0,0,0-1-.6.664.664,0,0,0-.745.334c-.864,1.549-2.8,5.5-4.862,2.68-1.445-1.974.312-4.456,1.262-6.208.289-.532-.453-1.181-.877-.676l-.065.081a.465.465,0,0,0-.391.265,1.56,1.56,0,0,1-2.394.581c-.764-.793-.021-2.158.9-2.4.531-.142.443-1.024-.133-.983a2.585,2.585,0,0,0-1.735,4.147,2.532,2.532,0,0,0,2.213.782c-1.043,2.144-1.354,4.636.789,6.275,2.444,1.869,4.856-.212,6.048-2.491a3.9,3.9,0,0,0,2.829,2.144c2.363.435,4.69-1.473,5.733-3.437C376.592,140.7,375.643,139.864,375.085,140.517Z" transform="translate(-334.689 -80.989)"/><path class="f" d="M416.57,129a.923.923,0,0,0-.647,1.561c.892.715-.3,1.734-1,2.038a3.019,3.019,0,0,1-3.017-.361.747.747,0,0,0-1.1.335c-.622-.025-1.261.719-.649,1.239a4.178,4.178,0,0,1,1.531,1.775,2.685,2.685,0,0,1-.3,2.468c-1.172,1.517-3.514.863-4.434-.536-.378-.574-1.394-.29-1.315.367a.612.612,0,0,0-.608.33c-.789,1.578-.515,3.588-2.619,4.255a1.7,1.7,0,0,1-2.006-2.655c.337-.451-.3-1-.74-.74-2.343,1.375-.727,4.77,1.554,5.073a4.29,4.29,0,0,0,3.712-1.488,6.021,6.021,0,0,0,1.448-3.484,4.349,4.349,0,0,0,6.134.214,4.2,4.2,0,0,0,.991-3.76,4.868,4.868,0,0,0-.356-1.062,4.653,4.653,0,0,0,3.672-.833C418.317,132.608,419.221,129.274,416.57,129Z" transform="translate(-344.881 -79.735)"/></g></g></svg>