<svg xmlns="http://www.w3.org/2000/svg" width="87" height="87" viewBox="0 0 87 87"><defs><style>.a{fill:#2c7995;}.b{fill:#f7fddc;}</style></defs><g transform="translate(-85 -550)"><circle class="a" cx="43.5" cy="43.5" r="43.5" transform="translate(85 550)"/><g transform="translate(107.582 577.486)"><g transform="translate(0 0)"><path class="b" d="M7.223,66.55c5.751,4.87,15.841,13.438,18.807,16.11a1.752,1.752,0,0,0,2.534,0c2.968-2.674,13.059-11.243,18.81-16.113a.872.872,0,0,0,.123-1.2A3.467,3.467,0,0,0,44.756,64H9.84A3.466,3.466,0,0,0,7.1,65.345.872.872,0,0,0,7.223,66.55Z" transform="translate(-6.348 -64)"/><path class="b" d="M41.394,126.493a.869.869,0,0,0-.931.126c-6.377,5.406-14.517,12.336-17.077,14.644a3.535,3.535,0,0,1-4.873,0c-2.73-2.459-11.87-10.23-17.076-14.642A.873.873,0,0,0,0,127.285v21.953a3.5,3.5,0,0,0,3.492,3.492H38.408a3.5,3.5,0,0,0,3.492-3.492V127.285A.872.872,0,0,0,41.394,126.493Z" transform="translate(0 -121.304)"/></g></g></g></svg>