<svg xmlns="http://www.w3.org/2000/svg" xmlns:xlink="http://www.w3.org/1999/xlink" width="89.188" height="74.476" viewBox="0 0 89.188 74.476"><defs><style>.a{fill:none;stroke:#707070;}.b{fill:#ff8000;}.c{clip-path:url(#a);}.d{fill:#fff;}.e,.f{fill:#222221;}.f{opacity:0.11;mix-blend-mode:multiply;isolation:isolate;}</style><clipPath id="a"><rect class="a" width="86" height="63" transform="translate(145 148)"/></clipPath></defs><g transform="translate(-143.312 -148)"><path class="b" d="M-663.244,175.923s-8.913,21.49-8.425,27.717,3.755,4.4,5.861,4.4,2.564-4.4,2.564-4.4l5.9-31.355Z" transform="translate(815 13.618)"/><path class="b" d="M-666.63,174.071s9.751,23.342,9.262,29.569-3.755,4.4-5.861,4.4-2.564-4.4-2.564-4.4l-5.9-31.355Z" transform="translate(889.85 14.189)"/><g class="c"><g transform="translate(147.721 151.054)"><path class="b" d="M417.09,86.973a28.689,28.689,0,0,0-6.845-5.476c.431-.035.865-.063,1.3-.075a2.361,2.361,0,0,0,1.18-4.36,20.6,20.6,0,0,0-13.091-3.785q.785-1.383,1.571-2.763a2.344,2.344,0,0,0-2-3.495,18.3,18.3,0,0,0-8.683,2.156,16.228,16.228,0,0,1,.321-2,2.28,2.28,0,0,0-2.765-2.765,16.336,16.336,0,0,0-9.211,5.065,13.82,13.82,0,0,0-10.81-6.315c-1.965-.13-2.418,2.229-1.441,3.481a17.183,17.183,0,0,1,1.869,2.981,35.691,35.691,0,0,0-16.447.076c-2.417.566-2.067,3.83,0,4.557a28.488,28.488,0,0,1,3.5,1.5,52.458,52.458,0,0,0-10.9,5.819c-1.8,1.255-1.3,4.44,1.186,4.378l2.713-.068a53.442,53.442,0,0,0-3.183,4.794c-3.028,4.794-2.934,5.076-3,5.893-.467,1.075-.908,2.167-1.311,3.281-.716,1.978,1.716,3.431,3.342,2.569.041-.022.083-.039.124-.06a39.589,39.589,0,0,0-3.663,13.185,2.267,2.267,0,0,0,3.394,1.948,29.166,29.166,0,0,1,2.723-1.734,37.852,37.852,0,0,0,2.1,15.934,2.292,2.292,0,0,0,4.124.539,25.339,25.339,0,0,1,2.441-2.79,26.9,26.9,0,0,0,6.5,10.015,2.281,2.281,0,0,0,3.772-1,10.366,10.366,0,0,1,1.292-2.781,21.282,21.282,0,0,0,3.162,2.708c-1.271,1.866-1.386,4.545-.921,6.937a5.735,5.735,0,0,0-2.818-.052c-1.342.344-2.95,1.491-2.663,3.078.682,3.776,7.873,2.093,9.816.577,1.174-.916.04-2.515-1.169-2.509-1-2.407-.506-4.6.031-6.9a4.728,4.728,0,0,0,1.982.187,4.008,4.008,0,0,0,2.625-1.7,15.351,15.351,0,0,0,.843-2.05,23.423,23.423,0,0,1,3.1,3.4,2.375,2.375,0,0,0,2.618,1.065q1.534-.637,3.011-1.355a18.289,18.289,0,0,1,.386,8.468,1.688,1.688,0,0,0-.009.618,1.745,1.745,0,0,0,1.413,2.653c2.469-.1,7.495.447,7.121-3.541-.258-2.742-2.861-2.538-5.129-1.8a17.215,17.215,0,0,0-1.114-7.783,54.646,54.646,0,0,0,6.826-4.442,5.316,5.316,0,0,0,1.707,2.2,4.756,4.756,0,0,0,6.317-.464,14.952,14.952,0,0,0,4.227-7.437c.088-.354.405-1.665.559-2.755.784.516,1.782.978,2.488,1.4a2.317,2.317,0,0,0,3.152-.826,16.6,16.6,0,0,0,.58-12.47l2.822.251c1.942.173,2.706-2.083,2.03-3.537a28.3,28.3,0,0,0-5.434-7.86c.513-.026,1.026-.052,1.538-.085,1.7-.11,3.3-2.075,2.13-3.714a31.783,31.783,0,0,0-2.575-3.169C419.018,94.233,418.028,85.4,417.09,86.973Z" transform="translate(-340.846 -63.154)"/><path class="d" d="M363.295,90.106a11.464,11.464,0,0,0,.615,19.3,5,5,0,0,0,1.5.605,11.082,11.082,0,0,0,3.043.787,12.329,12.329,0,0,0,13.415-12.223C381.818,89.752,370.063,85.467,363.295,90.106Z" transform="translate(-342.018 -68.869)"/><path class="d" d="M405.905,89.195c-4.754-1.1-10.365.695-12.812,5.115-2.348,4.24-1.082,10.717,3.592,12.829a6.045,6.045,0,0,0,1.159.387,9.659,9.659,0,0,0,4.128.8,11.223,11.223,0,0,0,10.018-8.067A8.456,8.456,0,0,0,405.905,89.195Z" transform="translate(-349.688 -69.021)"/><path class="e" d="M371.4,98.256c-3.428.1-6.92,3.129-5.544,6.739a.559.559,0,0,0,1.077-.3c-.616-2.973,2.469-4.987,5.112-4.77,2.814.233,4.538,2.516,4.785,5.176.093,1,1.609,1.041,1.591,0A6.9,6.9,0,0,0,371.4,98.256Z" transform="translate(-343.669 -71.16)"/><path class="e" d="M403.824,96.818c-3.018-.259-5.982,2.871-5.03,5.887a.656.656,0,0,0,1.283-.174c.076-1.939,1.406-4.094,3.625-3.894,2.049.184,3.092,2.459,2.651,4.255a.879.879,0,0,0,1.694.468A5.122,5.122,0,0,0,403.824,96.818Z" transform="translate(-351.209 -70.829)"/><path class="d" d="M374.825,130.438l-1.3-.516a1.109,1.109,0,0,0-.559-.362c-.168-.045-.333-.083-.5-.118a.954.954,0,0,0-.189-.037c-.034-.007-.069-.01-.1-.016l-.034-.013v.008c-.124-.021-.245-.045-.374-.059a1.4,1.4,0,0,0-1.387,1.225,1.354,1.354,0,0,0,.285,1.034,16.326,16.326,0,0,1-.307,1.853c-.281,1.075,1,2.291,2.024,1.557l2.781-2A1.419,1.419,0,0,0,374.825,130.438Z" transform="translate(-344.755 -78.245)"/><path class="d" d="M407.944,126.264c0,.226-.012.457-.022.689a3.417,3.417,0,0,0-.319-.178c-.682-.323-1.779.232-1.439,1.107a4.344,4.344,0,0,0,.982,1.447c.374.387.856.679,1.218,1.059a1.453,1.453,0,0,0,2.412-.637,24.446,24.446,0,0,0,.16-3.488C410.983,124.34,407.968,124.337,407.944,126.264Z" transform="translate(-352.917 -77.219)"/><path class="e" d="M403.077,117.213c-4.3,7.007-12.038,10.758-20.147,10.944-7.812.179-17.481-2.1-21.952-9.069-.38-.592-1.508-.212-1.2.508,3.479,8.257,14.52,10.507,22.563,10.368,8.946-.156,17.584-4.016,22.319-11.827A.915.915,0,0,0,403.077,117.213Z" transform="translate(-342.339 -75.385)"/><path class="f" d="M381.1,104.535c-1.565,6.812-6.673,9.167-13.283,9.053-7.007-.12-9.467-5.269-10.374-11.44a.15.15,0,0,0-.286,0,10.768,10.768,0,0,0,10.172,12.7c6.884.36,14.152-2.4,14.938-10.159C382.331,104.026,381.245,103.889,381.1,104.535Z" transform="translate(-341.721 -72.024)"/><path class="f" d="M411.7,100.72c-1.182,4.911-3.6,9.048-8.962,10.062-5.552,1.048-9.873-2.56-10.938-7.819-.085-.418-.668-.281-.7.094-.5,5.825,5.419,9.576,10.741,9.177,5.738-.429,11.137-5.413,10.886-11.375A.525.525,0,0,0,411.7,100.72Z" transform="translate(-349.49 -71.637)"/><path class="f" d="M360.163,77.384a14.749,14.749,0,0,1-5.639-.21c-1.747-.486-4.67-2.487-2.571-4.446.3-.276-.082-.742-.425-.55-2,1.116-1.769,3.652-.242,5.09,2.251,2.12,6.25,2.274,9.065,1.516C361.1,78.582,360.982,77.293,360.163,77.384Z" transform="translate(-340.141 -65.202)"/><path class="f" d="M351.242,86.487a15.217,15.217,0,0,1-4.454,2.924,12.2,12.2,0,0,1-1.809.577,4.76,4.76,0,0,1-2.033.11q-2.219-.837-.875-2.619c.2-.133.076-.518-.174-.412-2.164.913-1.144,3.586.741,4.147,3.205.953,7.423-1.6,9.476-3.853A.618.618,0,0,0,351.242,86.487Z" transform="translate(-337.996 -68.437)"/><path class="f" d="M348.778,100.442a45.475,45.475,0,0,1-2.933,4.919,22.492,22.492,0,0,1-2.073,2.5c-.879.9-5.4,4.751-5.667-.079a.28.28,0,0,0-.548-.074c-.875,3,2.862,3.978,5.014,2.906,3.436-1.712,6.22-6.143,7.476-9.634C350.316,100.232,349.153,99.76,348.778,100.442Z" transform="translate(-337.254 -71.583)"/><path class="f" d="M345.556,124.108a21.364,21.364,0,0,1-2.093,3.494,13.266,13.266,0,0,1-1.31,1.374q-.35.32-.716.619a1.615,1.615,0,0,1-2.412.074.44.44,0,0,0-.848-.233,1.567,1.567,0,0,0,.661,1.886c.964.638,2.137.13,3.01-.42a12.113,12.113,0,0,0,5-6.25A.71.71,0,0,0,345.556,124.108Z" transform="translate(-337.404 -76.978)"/><path class="f" d="M354.779,142.877c-.594,1.359-.9,2.817-1.529,4.168-.55,1.179-2.684,4.8-4.111,2.557a.441.441,0,0,0-.8.338c.553,1.836,2.764,1.647,3.99.626,1.942-1.616,3.2-4.77,3.624-7.2C356.066,142.717,355.093,142.159,354.779,142.877Z" transform="translate(-339.738 -81.26)"/><path class="f" d="M371.385,151.325a.784.784,0,0,0-1.568,0,20.735,20.735,0,0,1-.492,4.659c-.378,1.455-1.522,4.428-3.579,3.041a.12.12,0,0,0-.163.162c.98,1.448,2.76,1.108,3.819-.115C371.049,157.17,371.559,153.745,371.385,151.325Z" transform="translate(-343.672 -83.091)"/><path class="f" d="M393.357,156.068a5.779,5.779,0,0,1-9.406-.141,4.619,4.619,0,0,0-.429-3.271c-.494-.863-1.628-.235-1.5.631.276,1.836.232,3.6-1.369,4.863a4.557,4.557,0,0,1-5.192.029.531.531,0,0,0-.641.831,5.539,5.539,0,0,0,6.938.4,5.709,5.709,0,0,0,1.83-2.355,6.657,6.657,0,0,0,11.053.01C395.169,156.3,393.96,155.357,393.357,156.068Z" transform="translate(-345.748 -83.474)"/><path class="f" d="M418.208,151.777c-2.752,4.483-9.284,3-9.378-2.442a.636.636,0,0,0-1.271,0c-.52,6.814,9.114,9.589,11.941,3.2A.749.749,0,0,0,418.208,151.777Z" transform="translate(-353.245 -82.67)"/><path class="f" d="M430.991,139.712a3.559,3.559,0,0,1-3.212,3.237,3.7,3.7,0,0,1-3.438-3.173c-.134-.6-1.016-.438-1.038.14a4.616,4.616,0,0,0,4.476,4.639,4.774,4.774,0,0,0,4.7-4.641C432.494,139.081,431.138,138.848,430.991,139.712Z" transform="translate(-356.84 -80.491)"/><path class="f" d="M438.622,123.938c-.164-.719-1.178-.506-1.225.165-.137,1.952-2.136,2.106-3.634,1.6a7.7,7.7,0,0,1-2.918-1.9c-.479-.465-1.1.215-.713.713a7.011,7.011,0,0,0,5.59,2.809A2.919,2.919,0,0,0,438.622,123.938Z" transform="translate(-358.37 -76.915)"/><path class="f" d="M434,106.69a.641.641,0,0,0-.152,1.161.889.889,0,0,1,.483,1.25c-.347.715-1.312.777-2.023.754a16.422,16.422,0,0,1-4.1-.926c-.476-.142-.8.582-.344.814,1.894.964,5.573,2.412,7.442.665C436.592,109.212,436.08,106.3,434,106.69Z" transform="translate(-357.832 -73.076)"/><path class="f" d="M433.181,92.256c-.5-.361-1.118.334-.821.821.912,1.488,2.846,3.6.8,5.058a4.128,4.128,0,0,1-2.632.64c-.5-.017-3.082-.086-3.027-1.017.034-.574-.912-.715-1.015-.137-.52,2.924,5.371,2.871,7,2.113C437.022,98.094,435.774,94.14,433.181,92.256Z" transform="translate(-357.56 -69.769)"/><path class="f" d="M427.421,80.211A.656.656,0,0,0,426.4,81c.8,1.843-.662,3.1-2.382,3.413a4.944,4.944,0,0,1-4.065-1.1c-.51-.419-1.24.274-.74.739a6.144,6.144,0,0,0,6.538,1.287C427.6,84.551,429.46,81.866,427.421,80.211Z" transform="translate(-355.868 -67.005)"/><path class="f" d="M408.484,68.96a.335.335,0,0,0,.323.556,2,2,0,0,1,2.612,1.4c.345,1.282-.637,2.436-1.613,3.156-1.588,1.17-3.622,1.556-5.3,2.584A.778.778,0,0,0,405.295,78c2.621-1.555,7.109-2.524,7.438-6.243C412.911,69.738,410.306,67.071,408.484,68.96Z" transform="translate(-352.47 -64.331)"/><path class="f" d="M399.188,65.56c-.737-1.122-2.557-1.84-3.532-.619-.3.376.073.99.547.709a1.433,1.433,0,0,1,2.043,1.158c.156,1.234-.765,2.215-1.237,3.261-.281.623.467,1.342,1.007.777C399.245,69.559,400.278,67.22,399.188,65.56Z" transform="translate(-350.51 -63.417)"/><path class="f" d="M373.385,70.044c-1.789-1.718-1.768-3.664-1-5.854a.526.526,0,0,0-.873-.508c-1.982,2.07-1.034,5.8,1.113,7.341C373.21,71.441,373.888,70.528,373.385,70.044Z" transform="translate(-344.782 -63.242)"/><path class="f" d="M375.626,140.725c-.926,1.083-1.8,2.329-3.222,2.791-1.541.5-3.762-.491-3.413-2.389a.637.637,0,0,0-1.03-.618.685.685,0,0,0-.769.345c-.892,1.6-2.889,5.673-5.017,2.765-1.491-2.036.322-4.6,1.3-6.405.3-.549-.468-1.219-.9-.7l-.067.083a.48.48,0,0,0-.4.273,1.609,1.609,0,0,1-2.47.6c-.788-.818-.022-2.226.926-2.48.548-.147.457-1.056-.137-1.014a2.667,2.667,0,0,0-1.79,4.279,2.612,2.612,0,0,0,2.283.807c-1.076,2.212-1.4,4.784.814,6.474,2.522,1.928,5.011-.218,6.24-2.57a4.023,4.023,0,0,0,2.919,2.212c2.438.449,4.838-1.52,5.915-3.546C377.181,140.916,376.2,140.051,375.626,140.725Z" transform="translate(-341.959 -79.307)"/><path class="f" d="M417.143,129a.952.952,0,0,0-.668,1.611c.92.737-.306,1.789-1.032,2.1a3.115,3.115,0,0,1-3.112-.373.77.77,0,0,0-1.132.346c-.641-.026-1.3.742-.67,1.278a4.311,4.311,0,0,1,1.58,1.832,2.771,2.771,0,0,1-.307,2.546c-1.209,1.565-3.626.89-4.575-.553-.39-.592-1.438-.3-1.357.379a.631.631,0,0,0-.628.34c-.814,1.628-.531,3.7-2.7,4.39a1.758,1.758,0,0,1-2.07-2.739c.348-.465-.314-1.027-.763-.763-2.418,1.419-.75,4.921,1.6,5.234a4.426,4.426,0,0,0,3.83-1.535,6.212,6.212,0,0,0,1.494-3.594,4.487,4.487,0,0,0,6.328.221,4.338,4.338,0,0,0,1.023-3.879,5.025,5.025,0,0,0-.367-1.1,4.8,4.8,0,0,0,3.789-.86C418.945,132.723,419.878,129.283,417.143,129Z" transform="translate(-351.189 -78.171)"/></g></g></g></svg>