<svg xmlns="http://www.w3.org/2000/svg" xmlns:xlink="http://www.w3.org/1999/xlink" width="37.292" height="38.25" viewBox="0 0 37.292 38.25"><defs><style>.a{fill:url(#a);}.b{filter:url(#b);}</style><linearGradient id="a" x1="0.5" x2="0" y2="0.914" gradientUnits="objectBoundingBox"><stop offset="0" stop-color="#fff"/><stop offset="1" stop-color="#fbc800"/></linearGradient><filter id="b" x="0" y="0" width="37.292" height="38.25" filterUnits="userSpaceOnUse"><feOffset dy="3" input="SourceAlpha"/><feGaussianBlur stdDeviation="3" result="c"/><feFlood flood-color="#b59515" flood-opacity="0.502"/><feComposite operator="in" in2="c"/><feComposite in="SourceGraphic"/></filter></defs><g class="b" transform="matrix(1, 0, 0, 1, 0, 0)"><path class="a" d="M-109.01,45.913a9.775,9.775,0,0,0,6.828-3.127,9.736,9.736,0,0,0,2.808-6.977,9.737,9.737,0,0,0,2.808,6.977,9.872,9.872,0,0,0,6.849,3.127,9.859,9.859,0,0,0-4.871,1.51A10.221,10.221,0,0,0-98.1,51.1a10,10,0,0,0-1.276,4.956,9.786,9.786,0,0,0-2.808-7A9.711,9.711,0,0,0-109.01,45.913Z" transform="translate(118.01 -29.81)"/></g></svg>