<svg xmlns="http://www.w3.org/2000/svg" xmlns:xlink="http://www.w3.org/1999/xlink" viewBox="0 0 112 112"><defs><style>.a{fill:#4ccbf9;}.b{fill:#fff;opacity:0.15;}.c{fill:#feffff;opacity:0.38;}.d,.e{fill:#53c5ee;}.d{opacity:0.72;}.e{opacity:0.55;}.f{filter:url(#a);}</style><filter id="a" x="0" y="0" width="112" height="112" filterUnits="userSpaceOnUse"><feOffset dy="3" input="SourceAlpha"/><feGaussianBlur stdDeviation="3" result="b"/><feFlood flood-opacity="0.161"/><feComposite operator="in" in2="b"/><feComposite in="SourceGraphic"/></filter></defs><g transform="translate(-997 4481.996)"><g transform="translate(1006 -4475.996)"><g class="f" transform="matrix(1, 0, 0, 1, -9, -6)"><circle class="a" cx="47" cy="47" r="47" transform="translate(9 6)"/></g></g><path class="b" d="M41.243,11.627c-2.855,5.737-6.865,8.858-12.377,16.876-4.772,6.943-8.579,15.693-8.748,20.927-.355,11-17.3,8.06-19.76-5.354S8.742,17.543,13.174,11.627,33.917-2,37.191.475,43.336,7.422,41.243,11.627Z" transform="translate(1024.167 -4469.017) rotate(7)"/><path class="c" d="M24.679,6.958c-1.708,3.433-4.108,5.3-7.406,10.1-2.856,4.155-5.133,9.39-5.235,12.522-.213,6.58-10.355,4.823-11.824-3.2S5.231,10.5,7.883,6.958,20.3-1.2,22.254.284,25.931,4.441,24.679,6.958Z" transform="translate(1023.193 -4465.44) rotate(11)"/><circle class="d" cx="22.5" cy="22.5" r="22.5" transform="translate(1040 -4437.996)"/><path class="e" d="M194.693-5062.809s31.87,5.336,35.428,40.456-40.147,62.579-74.414,34.189c-.171-.141-.34-.284-.612-.518,39.749,6.459,65.821-35.837,45.786-65.851C197.4-5059.1,194.693-5062.809,194.693-5062.809Z" transform="translate(865.949 590.409)"/></g></svg>