<svg xmlns="http://www.w3.org/2000/svg" viewBox="0 0 101 75"><defs><style>.a,.i{fill:none;}.a,.b{stroke:#000;stroke-width:5px;}.a{stroke-linecap:round;}.b,.d{fill:#fff;}.c{fill:#4ccbf9;}.d{opacity:0.15;}.e{fill:#feffff;opacity:0.38;}.f,.g{fill:#53c5ee;}.f{opacity:0.72;}.g{opacity:0.55;}.h{stroke:none;}</style></defs><g transform="translate(-142 -2361)"><g transform="translate(5 12)"><line class="a" y2="29" transform="translate(148.5 2392.5)"/><g class="b" transform="translate(137 2360)"><ellipse class="h" cx="11" cy="17.5" rx="11" ry="17.5"/><ellipse class="i" cx="11" cy="17.5" rx="8.5" ry="15"/></g></g><path class="c" d="M-549.67,4663.8a23.333,23.333,0,0,1-6.679-1.909c-10.279-3.205-23.487-7.849-31.187-7.806-13.257.074-24.732,4.6-25.576,4.12-1.138-.649-5.852-1.483-5.955-12.58s5.955-13.04,5.955-13.04.317.124,1.259.6c.955.523,4.671,1.486,18.6.492,3.488-.25,13.655-4.323,17.817-6.05,5.269-2.184,10.889-4.493,15.909-6.766A23.392,23.392,0,0,1-546.612,4617a23.5,23.5,0,0,1,23.5,23.5,23.5,23.5,0,0,1-20.864,23.354,16.94,16.94,0,0,1-2.746.228A15.558,15.558,0,0,1-549.67,4663.8Z" transform="translate(766.112 -2256)"/><path class="d" d="M20.513,5.783c-1.42,2.853-3.414,4.406-6.156,8.394-2.374,3.453-4.267,7.8-4.351,10.408C9.829,30.054,1.4,28.594.178,21.922s4.17-13.2,6.375-16.139S16.869-.994,18.5.236,21.553,3.691,20.513,5.783Z" transform="translate(205.096 2364.297) rotate(7)"/><path class="e" d="M12.274,3.46c-.85,1.707-2.043,2.636-3.684,5.022-1.42,2.066-2.553,4.67-2.6,6.228-.106,3.273-5.15,2.4-5.881-1.593s2.5-7.9,3.814-9.657S10.094-.595,11.068.141,12.9,2.209,12.274,3.46Z" transform="translate(204.612 2366.076) rotate(11)"/><ellipse class="f" cx="11" cy="11.5" rx="11" ry="11.5" transform="translate(213 2379)"/><path class="g" d="M174.789-5062.809s15.851,2.654,17.62,20.121-19.967,31.124-37.011,17c-.085-.07-.169-.141-.3-.258,19.77,3.213,32.737-17.824,22.772-32.751C176.136-5060.963,174.789-5062.809,174.789-5062.809Z" transform="translate(48.448 7425.424)"/></g></svg>