<svg xmlns="http://www.w3.org/2000/svg" xmlns:xlink="http://www.w3.org/1999/xlink" width="89.081" height="92.883" viewBox="0 0 89.081 92.883"><defs><style>.a{fill:none;}.b{fill:url(#a);}.c,.d{stroke:none;}.d{fill:#ffce09;}.e{filter:url(#e);}.f{filter:url(#b);}</style><linearGradient id="a" x1="0.5" x2="0" y2="0.914" gradientUnits="objectBoundingBox"><stop offset="0" stop-color="#fff"/><stop offset="1" stop-color="#fbc800"/></linearGradient><filter id="b" x="0" y="54.634" width="37.292" height="38.249" filterUnits="userSpaceOnUse"><feOffset dy="3" input="SourceAlpha"/><feGaussianBlur stdDeviation="3" result="c"/><feFlood flood-color="#b59515" flood-opacity="0.502"/><feComposite operator="in" in2="c"/><feComposite in="SourceGraphic"/></filter><filter id="e" x="19" y="65.091" width="27.329" height="27.792" filterUnits="userSpaceOnUse"><feOffset dy="3" input="SourceAlpha"/><feGaussianBlur stdDeviation="3" result="f"/><feFlood flood-color="#b59515" flood-opacity="0.502"/><feComposite operator="in" in2="f"/><feComposite in="SourceGraphic"/></filter></defs><g transform="translate(-129.919 -2015)"><g transform="translate(-378 6817)"><g class="a" transform="translate(511 -4802)"><path class="c" d="M43,0A43,43,0,1,1,0,43,43,43,0,0,1,43,0Z"/><path class="d" d="M 43 5 C 37.86783218383789 5 32.89183044433594 6.004013061523438 28.2102165222168 7.984169006347656 C 23.68579864501953 9.897842407226563 19.62141418457031 12.63847351074219 16.12993621826172 16.12993621826172 C 12.63847351074219 19.62141418457031 9.897842407226563 23.68579864501953 7.984169006347656 28.2102165222168 C 6.004013061523438 32.89183044433594 5 37.86783218383789 5 43 C 5 48.13216781616211 6.004013061523438 53.10816955566406 7.984169006347656 57.78978729248047 C 9.897842407226563 62.31420135498047 12.63847351074219 66.37858581542969 16.12993621826172 69.87006378173828 C 19.62141418457031 73.36152648925781 23.68579864501953 76.10215759277344 28.2102165222168 78.01583099365234 C 32.89183044433594 79.99598693847656 37.86783218383789 81 43 81 C 48.13216781616211 81 53.10816955566406 79.99598693847656 57.78978729248047 78.01583099365234 C 62.31420135498047 76.10215759277344 66.37858581542969 73.36152648925781 69.87006378173828 69.87006378173828 C 73.36152648925781 66.37858581542969 76.10215759277344 62.31420135498047 78.01583099365234 57.78978729248047 C 79.99598693847656 53.10816955566406 81 48.13216781616211 81 43 C 81 37.86783218383789 79.99598693847656 32.89183044433594 78.01583099365234 28.2102165222168 C 76.10215759277344 23.68579864501953 73.36152648925781 19.62141418457031 69.87006378173828 16.12993621826172 C 66.37858581542969 12.63847351074219 62.31420135498047 9.897842407226563 57.78978729248047 7.984169006347656 C 53.10816955566406 6.004013061523438 48.13216781616211 5 43 5 M 43 0 C 66.74824523925781 0 86 19.25175476074219 86 43 C 86 66.74824523925781 66.74824523925781 86 43 86 C 19.25175476074219 86 0 66.74824523925781 0 43 C 0 19.25175476074219 19.25175476074219 0 43 0 Z"/></g></g><g class="f" transform="matrix(1, 0, 0, 1, 129.92, 2015)"><path class="b" d="M-109.01,45.913a9.775,9.775,0,0,0,6.828-3.127,9.736,9.736,0,0,0,2.808-6.977,9.737,9.737,0,0,0,2.808,6.977,9.872,9.872,0,0,0,6.849,3.127,9.859,9.859,0,0,0-4.871,1.51A10.221,10.221,0,0,0-98.1,51.1a10,10,0,0,0-1.276,4.956,9.786,9.786,0,0,0-2.808-7A9.711,9.711,0,0,0-109.01,45.913Z" transform="translate(118.01 24.82)"/></g><g class="e" transform="matrix(1, 0, 0, 1, 129.92, 2015)"><path class="b" d="M-109.01,40.7a4.727,4.727,0,0,0,3.3-1.512,4.708,4.708,0,0,0,1.358-3.374,4.708,4.708,0,0,0,1.358,3.374A4.774,4.774,0,0,0-99.681,40.7a4.767,4.767,0,0,0-2.355.73,4.943,4.943,0,0,0-1.7,1.779,4.837,4.837,0,0,0-.617,2.4,4.732,4.732,0,0,0-1.358-3.384A4.7,4.7,0,0,0-109.01,40.7Z" transform="translate(137.01 35.28)"/></g></g></svg>