<svg xmlns="http://www.w3.org/2000/svg" xmlns:xlink="http://www.w3.org/1999/xlink" width="27.329" height="27.792" viewBox="0 0 27.329 27.792"><defs><style>.a{fill:url(#a);}.b{filter:url(#b);}</style><linearGradient id="a" x1="0.5" x2="0" y2="0.914" gradientUnits="objectBoundingBox"><stop offset="0" stop-color="#fff"/><stop offset="1" stop-color="#fbc800"/></linearGradient><filter id="b" x="0" y="0" width="27.329" height="27.792" filterUnits="userSpaceOnUse"><feOffset dy="3" input="SourceAlpha"/><feGaussianBlur stdDeviation="3" result="c"/><feFlood flood-color="#b59515" flood-opacity="0.502"/><feComposite operator="in" in2="c"/><feComposite in="SourceGraphic"/></filter></defs><g class="b" transform="matrix(1, 0, 0, 1, 0, 0)"><path class="a" d="M-109.01,40.7a4.727,4.727,0,0,0,3.3-1.512,4.708,4.708,0,0,0,1.358-3.374,4.708,4.708,0,0,0,1.358,3.374A4.774,4.774,0,0,0-99.681,40.7a4.767,4.767,0,0,0-2.355.73,4.943,4.943,0,0,0-1.7,1.779,4.837,4.837,0,0,0-.617,2.4,4.732,4.732,0,0,0-1.358-3.384A4.7,4.7,0,0,0-109.01,40.7Z" transform="translate(118.01 -29.81)"/></g></svg>