<svg xmlns="http://www.w3.org/2000/svg" xmlns:xlink="http://www.w3.org/1999/xlink" viewBox="0 0 104 104"><defs><style>.a{fill:#4ccbf9;}.b{fill:#fff;opacity:0.15;}.c{fill:#feffff;opacity:0.38;}.d,.e{fill:#5ac1e6;}.d{opacity:0.72;}.e{opacity:0.55;}.f{filter:url(#a);}</style><filter id="a" x="0" y="0" width="104" height="104" filterUnits="userSpaceOnUse"><feOffset dy="3" input="SourceAlpha"/><feGaussianBlur stdDeviation="3" result="b"/><feFlood flood-opacity="0.161"/><feComposite operator="in" in2="b"/><feComposite in="SourceGraphic"/></filter></defs><g transform="translate(-502 4808)"><g class="f" transform="matrix(1, 0, 0, 1, 502, -4808)"><circle class="a" cx="43" cy="43" r="43" transform="translate(9 6)"/></g><path class="b" d="M184.521-5040.827c-2.583,5.191-6.212,8.016-11.2,15.271-4.319,6.282-7.763,14.2-7.916,18.937-.322,9.95-15.659,7.294-17.881-4.845s7.587-24.01,11.6-29.363,18.77-12.33,21.733-10.092S186.414-5044.632,184.521-5040.827Z" transform="translate(-234.269 200.354) rotate(7)"/><path class="c" d="M169.532-5045.052c-1.546,3.106-3.717,4.8-6.7,9.138-2.584,3.759-4.645,8.5-4.737,11.331-.192,5.954-9.37,4.365-10.7-2.9s4.54-14.367,6.94-17.57,11.231-7.378,13-6.039S170.665-5047.33,169.532-5045.052Z" transform="translate(-581.78 138.286) rotate(11)"/><circle class="d" cx="21" cy="21" r="21" transform="translate(541 -4768)"/><path class="e" d="M190.927-5062.809s28.839,4.829,32.059,36.608-36.328,56.627-67.337,30.938c-.155-.128-.308-.258-.553-.469,35.969,5.845,59.561-32.429,41.432-59.588C193.377-5059.45,190.927-5062.809,190.927-5062.809Z" transform="translate(369.518 264.344)"/></g></svg>