<svg xmlns="http://www.w3.org/2000/svg" xmlns:xlink="http://www.w3.org/1999/xlink" width="114.322" height="136.158" viewBox="0 0 114.322 136.158"><defs><style>.a{fill:#99d000;}.b{fill:#fff;opacity:0.15;}.c{fill:#feffff;opacity:0.38;}.d{fill:#92c501;opacity:0.72;}.e{fill:#8dbe03;opacity:0.55;}.f{fill:#f7fddc;font-size:40px;font-family:GanCLM-Bold, Gan CLM;font-weight:700;}.g{fill:#b1de31;opacity:0.39;}.h{fill:#ffce09;}.i,.j{stroke:none;}.k{filter:url(#g);}.l{filter:url(#e);}.m{filter:url(#c);}.n{filter:url(#a);}</style><filter id="a" x="5.477" y="0" width="104" height="104" filterUnits="userSpaceOnUse"><feOffset dy="3" input="SourceAlpha"/><feGaussianBlur stdDeviation="3" result="b"/><feFlood flood-opacity="0.161"/><feComposite operator="in" in2="b"/><feComposite in="SourceGraphic"/></filter><filter id="c" x="65.52" y="78" width="48.801" height="46.701" filterUnits="userSpaceOnUse"><feOffset dy="3" input="SourceAlpha"/><feGaussianBlur stdDeviation="3" result="d"/><feFlood flood-opacity="0.161"/><feComposite operator="in" in2="d"/><feComposite in="SourceGraphic"/></filter><filter id="e" x="32.477" y="89.457" width="48.801" height="46.701" filterUnits="userSpaceOnUse"><feOffset dy="3" input="SourceAlpha"/><feGaussianBlur stdDeviation="3" result="f"/><feFlood flood-opacity="0.161"/><feComposite operator="in" in2="f"/><feComposite in="SourceGraphic"/></filter><filter id="g" x="0" y="78" width="48.801" height="46.701" filterUnits="userSpaceOnUse"><feOffset dy="3" input="SourceAlpha"/><feGaussianBlur stdDeviation="3" result="h"/><feFlood flood-opacity="0.161"/><feComposite operator="in" in2="h"/><feComposite in="SourceGraphic"/></filter></defs><g transform="translate(-35.523 -408)"><g transform="translate(-461 5216)"><g class="n" transform="matrix(1, 0, 0, 1, 496.52, -4808)"><circle class="a" cx="43" cy="43" r="43" transform="translate(14.48 6)"/></g><path class="b" d="M184.521-5040.827c-2.583,5.191-6.212,8.016-11.2,15.271-4.319,6.282-7.763,14.2-7.916,18.937-.322,9.95-15.659,7.294-17.881-4.845s7.587-24.01,11.6-29.363,18.77-12.33,21.733-10.092S186.414-5044.632,184.521-5040.827Z" transform="translate(-234.269 200.354) rotate(7)"/><path class="c" d="M169.532-5045.052c-1.546,3.106-3.717,4.8-6.7,9.138-2.584,3.759-4.645,8.5-4.737,11.331-.192,5.954-9.37,4.365-10.7-2.9s4.54-14.367,6.94-17.57,11.231-7.378,13-6.039S170.665-5047.33,169.532-5045.052Z" transform="translate(-581.78 138.286) rotate(11)"/><circle class="d" cx="21" cy="21" r="21" transform="translate(541 -4768)"/><path class="e" d="M190.927-5062.809s28.839,4.829,32.059,36.608-36.328,56.627-67.337,30.938c-.155-.128-.308-.258-.553-.469,35.969,5.845,59.561-32.429,41.432-59.588C193.377-5059.45,190.927-5062.809,190.927-5062.809Z" transform="translate(369.518 264.344)"/></g><text class="f" transform="translate(82 470)"><tspan x="0" y="0">ג</tspan></text><g class="m" transform="matrix(1, 0, 0, 1, 35.52, 408)"><g class="g" transform="translate(74.52 84)"><path class="i" d="M 23.53189086914063 27.71926307678223 C 23.38404083251953 27.71927452087402 23.24024963378906 27.68215370178223 23.10452079772949 27.60894393920898 L 15.92290019989014 23.73506355285645 C 15.76296997070313 23.64879417419434 15.5823802947998 23.60319328308105 15.40067005157471 23.60319328308105 C 15.21895980834961 23.60319328308105 15.03837013244629 23.64879417419434 14.87843990325928 23.73506355285645 L 7.696810245513916 27.60894393920898 C 7.561100006103516 27.68214416503906 7.417320251464844 27.71926307678223 7.269440174102783 27.71926307678223 C 7.004159927368164 27.71926307678223 6.742929935455322 27.59437370300293 6.570650100708008 27.38518333435059 C 6.399089813232422 27.17686462402344 6.333600044250488 26.91374397277832 6.386229991912842 26.64427375793457 L 7.915860176086426 18.81398391723633 C 7.988669872283936 18.44126319885254 7.860189914703369 18.05009460449219 7.580560207366943 17.79314422607422 L 1.661120057106018 12.35354423522949 C 1.399710059165955 12.11332416534424 1.304670095443726 11.75409412384033 1.413080096244812 11.41602420806885 C 1.521480083465576 11.07796382904053 1.807720065116882 10.84100437164307 2.160069942474365 10.79760360717773 L 10.24975967407227 9.801243782043457 C 10.62372016906738 9.755184173583984 10.94423961639404 9.524853706359863 11.10715961456299 9.185113906860352 L 14.58915042877197 1.923663973808289 C 14.74024963378906 1.608554005622864 15.05121040344238 1.412804007530212 15.40067005157471 1.412804007530212 C 15.75012969970703 1.412804007530212 16.06109046936035 1.608554005622864 16.21219062805176 1.923663973808289 L 19.69417953491211 9.185104370117188 C 19.85709953308105 9.524844169616699 20.17761993408203 9.755184173583984 20.55157089233398 9.801243782043457 L 28.64126968383789 10.79760360717773 C 28.99361991882324 10.84100437164307 29.27985000610352 11.07796382904053 29.38825988769531 11.41602420806885 C 29.49666976928711 11.75409412384033 29.40163040161133 12.11332416534424 29.14023017883301 12.35354423522949 L 23.22077941894531 17.79314422607422 C 22.9411506652832 18.05009460449219 22.81266975402832 18.44126319885254 22.88546943664551 18.81398391723633 L 24.41510963439941 26.64427375793457 C 24.46773910522461 26.91370391845703 24.40224075317383 27.17680358886719 24.23068046569824 27.38513374328613 C 24.05839920043945 27.5943431854248 23.79717063903809 27.71925354003906 23.53189086914063 27.71926307678223 Z"/><path class="j" d="M 15.40067005157471 1.51280403137207 C 15.08532047271729 1.51280403137207 14.81566047668457 1.682554244995117 14.67931938171387 1.966903686523438 L 11.19733047485352 9.228353500366211 C 11.01959991455078 9.598974227905273 10.66994094848633 9.850244522094727 10.26198959350586 9.900493621826172 L 2.172300338745117 10.89685440063477 C 1.854349136352539 10.93601417541504 1.606119155883789 11.14151382446289 1.50830078125 11.44656372070313 C 1.410470962524414 11.75161361694336 1.492900848388672 12.06315422058105 1.728780746459961 12.27991485595703 L 7.648229598999023 17.71950531005859 C 7.953269958496094 17.99982452392578 8.093429565429688 18.42655372619629 8.014009475708008 18.83315277099609 L 6.484390258789063 26.66345405578613 C 6.437580108642578 26.90304374694824 6.495630264282227 27.13678359985352 6.647850036621094 27.32161331176758 C 6.80133056640625 27.50798416137695 7.033700942993164 27.61925315856934 7.269430160522461 27.61925315856934 C 7.400550842285156 27.61925315856934 7.528369903564453 27.58617401123047 7.64933967590332 27.52092361450195 L 14.83096981048584 23.64705467224121 C 15.00543975830078 23.55293464660645 15.20244026184082 23.50319290161133 15.40067005157471 23.50319290161133 C 15.59889984130859 23.50319290161133 15.79590034484863 23.55293464660645 15.97037029266357 23.64705467224121 L 23.15200042724609 27.52091407775879 C 23.27297019958496 27.58617401123047 23.40079116821289 27.61925315856934 23.53190994262695 27.61925315856934 C 23.76762008666992 27.61925315856934 23.99998092651367 27.50797462463379 24.15348052978516 27.32158470153809 C 24.30570030212402 27.13675308227539 24.36375999450684 26.90302467346191 24.31695938110352 26.66344451904297 L 22.78733062744141 18.83315277099609 C 22.70790863037109 18.42655372619629 22.84807014465332 17.99982452392578 23.15311050415039 17.71951293945313 L 29.07255935668945 12.27991485595703 C 29.30843925476074 12.06315422058105 29.390869140625 11.75161361694336 29.29303932189941 11.44656372070313 C 29.19522094726563 11.14151382446289 28.94699096679688 10.93601417541504 28.6290397644043 10.89685440063477 L 20.53935050964355 9.900493621826172 C 20.13140106201172 9.850244522094727 19.78174018859863 9.598974227905273 19.6040096282959 9.228343963623047 L 16.12202072143555 1.966903686523438 C 15.98567008972168 1.682563781738281 15.71601009368896 1.51280403137207 15.40067005157471 1.51280403137207 M 15.40067005157471 1.312801361083984 C 15.76078796386719 1.312801361083984 16.12090492248535 1.502008438110352 16.30236053466797 1.880424499511719 L 19.78435134887695 9.141864776611328 C 19.93173027038574 9.449214935302734 20.22550010681152 9.660324096679688 20.56380081176758 9.701993942260742 L 28.65349006652832 10.69835472106934 C 29.49978065490723 10.80258369445801 29.83572959899902 11.85022354125977 29.20788955688477 12.42717361450195 L 23.2884407043457 17.86677360534668 C 23.03237915039063 18.10207366943359 22.91695022583008 18.4535026550293 22.98361968994141 18.79481506347656 L 24.51325035095215 26.62510299682617 C 24.64115524291992 27.27986145019531 24.12201881408691 27.81925773620605 23.53190612792969 27.81925773620605 C 23.37501907348633 27.81925773620605 23.21315002441406 27.78114891052246 23.05705070495605 27.69694328308105 L 15.87541961669922 23.82307434082031 C 15.72725963592529 23.74315452575684 15.56396484375 23.70319366455078 15.40067005157471 23.70319366455078 C 15.23737525939941 23.70319366455078 15.07408046722412 23.74315452575684 14.9259204864502 23.82307434082031 L 7.744289398193359 27.69694328308105 C 7.588233947753906 27.78112411499023 7.426277160644531 27.81925773620605 7.269433975219727 27.81925773620605 C 6.679265975952148 27.81925773620605 6.160177230834961 27.2799129486084 6.28809928894043 26.62510299682617 L 7.817720413208008 18.79481506347656 C 7.884389877319336 18.4535026550293 7.768960952758789 18.10207366943359 7.512899398803711 17.86677360534668 L 1.593450546264648 12.42717361450195 C 0.9656105041503906 11.85022354125977 1.301559448242188 10.80258369445801 2.147850036621094 10.69835472106934 L 10.23753929138184 9.701993942260742 C 10.57583999633789 9.660324096679688 10.86960983276367 9.449214935302734 11.01699066162109 9.141874313354492 L 14.49897956848145 1.880424499511719 C 14.68043518066406 1.502008438110352 15.04055213928223 1.312801361083984 15.40067005157471 1.312801361083984 Z"/></g></g><g class="l" transform="matrix(1, 0, 0, 1, 35.52, 408)"><g class="g" transform="translate(41.48 95.46)"><path class="i" d="M 23.53189086914063 27.71926307678223 C 23.38404083251953 27.71927452087402 23.24024963378906 27.68215370178223 23.10452079772949 27.60894393920898 L 15.92290019989014 23.73506355285645 C 15.76296997070313 23.64879417419434 15.5823802947998 23.60319328308105 15.40067005157471 23.60319328308105 C 15.21895980834961 23.60319328308105 15.03837013244629 23.64879417419434 14.87843990325928 23.73506355285645 L 7.696810245513916 27.60894393920898 C 7.561100006103516 27.68214416503906 7.417320251464844 27.71926307678223 7.269440174102783 27.71926307678223 C 7.004159927368164 27.71926307678223 6.742929935455322 27.59437370300293 6.570650100708008 27.38518333435059 C 6.399089813232422 27.17686462402344 6.333600044250488 26.91374397277832 6.386229991912842 26.64427375793457 L 7.915860176086426 18.81398391723633 C 7.988669872283936 18.44126319885254 7.860189914703369 18.05009460449219 7.580560207366943 17.79314422607422 L 1.661120057106018 12.35354423522949 C 1.399710059165955 12.11332416534424 1.304670095443726 11.75409412384033 1.413080096244812 11.41602420806885 C 1.521480083465576 11.07796382904053 1.807720065116882 10.84100437164307 2.160069942474365 10.79760360717773 L 10.24975967407227 9.801243782043457 C 10.62372016906738 9.755184173583984 10.94423961639404 9.524853706359863 11.10715961456299 9.185113906860352 L 14.58915042877197 1.923663973808289 C 14.74024963378906 1.608554005622864 15.05121040344238 1.412804007530212 15.40067005157471 1.412804007530212 C 15.75012969970703 1.412804007530212 16.06109046936035 1.608554005622864 16.21219062805176 1.923663973808289 L 19.69417953491211 9.185104370117188 C 19.85709953308105 9.524844169616699 20.17761993408203 9.755184173583984 20.55157089233398 9.801243782043457 L 28.64126968383789 10.79760360717773 C 28.99361991882324 10.84100437164307 29.27985000610352 11.07796382904053 29.38825988769531 11.41602420806885 C 29.49666976928711 11.75409412384033 29.40163040161133 12.11332416534424 29.14023017883301 12.35354423522949 L 23.22077941894531 17.79314422607422 C 22.9411506652832 18.05009460449219 22.81266975402832 18.44126319885254 22.88546943664551 18.81398391723633 L 24.41510963439941 26.64427375793457 C 24.46773910522461 26.91370391845703 24.40224075317383 27.17680358886719 24.23068046569824 27.38513374328613 C 24.05839920043945 27.5943431854248 23.79717063903809 27.71925354003906 23.53189086914063 27.71926307678223 Z"/><path class="j" d="M 15.40067005157471 1.51280403137207 C 15.08532047271729 1.51280403137207 14.81566047668457 1.682554244995117 14.67931938171387 1.966903686523438 L 11.19733047485352 9.228353500366211 C 11.01959991455078 9.598974227905273 10.66994094848633 9.850244522094727 10.26198959350586 9.900493621826172 L 2.172300338745117 10.89685440063477 C 1.854349136352539 10.93601417541504 1.606119155883789 11.14151382446289 1.50830078125 11.44656372070313 C 1.410470962524414 11.75161361694336 1.492900848388672 12.06315422058105 1.728780746459961 12.27991485595703 L 7.648229598999023 17.71950531005859 C 7.953269958496094 17.99982452392578 8.093429565429688 18.42655372619629 8.014009475708008 18.83315277099609 L 6.484390258789063 26.66345405578613 C 6.437580108642578 26.90304374694824 6.495630264282227 27.13678359985352 6.647850036621094 27.32161331176758 C 6.80133056640625 27.50798416137695 7.033700942993164 27.61925315856934 7.269430160522461 27.61925315856934 C 7.400550842285156 27.61925315856934 7.528369903564453 27.58617401123047 7.64933967590332 27.52092361450195 L 14.83096981048584 23.64705467224121 C 15.00543975830078 23.55293464660645 15.20244026184082 23.50319290161133 15.40067005157471 23.50319290161133 C 15.59889984130859 23.50319290161133 15.79590034484863 23.55293464660645 15.97037029266357 23.64705467224121 L 23.15200042724609 27.52091407775879 C 23.27297019958496 27.58617401123047 23.40079116821289 27.61925315856934 23.53190994262695 27.61925315856934 C 23.76762008666992 27.61925315856934 23.99998092651367 27.50797462463379 24.15348052978516 27.32158470153809 C 24.30570030212402 27.13675308227539 24.36375999450684 26.90302467346191 24.31695938110352 26.66344451904297 L 22.78733062744141 18.83315277099609 C 22.70790863037109 18.42655372619629 22.84807014465332 17.99982452392578 23.15311050415039 17.71951293945313 L 29.07255935668945 12.27991485595703 C 29.30843925476074 12.06315422058105 29.390869140625 11.75161361694336 29.29303932189941 11.44656372070313 C 29.19522094726563 11.14151382446289 28.94699096679688 10.93601417541504 28.6290397644043 10.89685440063477 L 20.53935050964355 9.900493621826172 C 20.13140106201172 9.850244522094727 19.78174018859863 9.598974227905273 19.6040096282959 9.228343963623047 L 16.12202072143555 1.966903686523438 C 15.98567008972168 1.682563781738281 15.71601009368896 1.51280403137207 15.40067005157471 1.51280403137207 M 15.40067005157471 1.312801361083984 C 15.76078796386719 1.312801361083984 16.12090492248535 1.502008438110352 16.30236053466797 1.880424499511719 L 19.78435134887695 9.141864776611328 C 19.93173027038574 9.449214935302734 20.22550010681152 9.660324096679688 20.56380081176758 9.701993942260742 L 28.65349006652832 10.69835472106934 C 29.49978065490723 10.80258369445801 29.83572959899902 11.85022354125977 29.20788955688477 12.42717361450195 L 23.2884407043457 17.86677360534668 C 23.03237915039063 18.10207366943359 22.91695022583008 18.4535026550293 22.98361968994141 18.79481506347656 L 24.51325035095215 26.62510299682617 C 24.64115524291992 27.27986145019531 24.12201881408691 27.81925773620605 23.53190612792969 27.81925773620605 C 23.37501907348633 27.81925773620605 23.21315002441406 27.78114891052246 23.05705070495605 27.69694328308105 L 15.87541961669922 23.82307434082031 C 15.72725963592529 23.74315452575684 15.56396484375 23.70319366455078 15.40067005157471 23.70319366455078 C 15.23737525939941 23.70319366455078 15.07408046722412 23.74315452575684 14.9259204864502 23.82307434082031 L 7.744289398193359 27.69694328308105 C 7.588233947753906 27.78112411499023 7.426277160644531 27.81925773620605 7.269433975219727 27.81925773620605 C 6.679265975952148 27.81925773620605 6.160177230834961 27.2799129486084 6.28809928894043 26.62510299682617 L 7.817720413208008 18.79481506347656 C 7.884389877319336 18.4535026550293 7.768960952758789 18.10207366943359 7.512899398803711 17.86677360534668 L 1.593450546264648 12.42717361450195 C 0.9656105041503906 11.85022354125977 1.301559448242188 10.80258369445801 2.147850036621094 10.69835472106934 L 10.23753929138184 9.701993942260742 C 10.57583999633789 9.660324096679688 10.86960983276367 9.449214935302734 11.01699066162109 9.141874313354492 L 14.49897956848145 1.880424499511719 C 14.68043518066406 1.502008438110352 15.04055213928223 1.312801361083984 15.40067005157471 1.312801361083984 Z"/></g></g><g class="k" transform="matrix(1, 0, 0, 1, 35.52, 408)"><g class="h" transform="translate(9 84)"><path class="i" d="M 23.53189086914063 27.71926307678223 C 23.38404083251953 27.71927452087402 23.24024963378906 27.68215370178223 23.10452079772949 27.60894393920898 L 15.92290019989014 23.73506355285645 C 15.76296997070313 23.64879417419434 15.5823802947998 23.60319328308105 15.40067005157471 23.60319328308105 C 15.21895980834961 23.60319328308105 15.03837013244629 23.64879417419434 14.87843990325928 23.73506355285645 L 7.696810245513916 27.60894393920898 C 7.561100006103516 27.68214416503906 7.417320251464844 27.71926307678223 7.269440174102783 27.71926307678223 C 7.004159927368164 27.71926307678223 6.742929935455322 27.59437370300293 6.570650100708008 27.38518333435059 C 6.399089813232422 27.17686462402344 6.333600044250488 26.91374397277832 6.386229991912842 26.64427375793457 L 7.915860176086426 18.81398391723633 C 7.988669872283936 18.44126319885254 7.860189914703369 18.05009460449219 7.580560207366943 17.79314422607422 L 1.661120057106018 12.35354423522949 C 1.399710059165955 12.11332416534424 1.304670095443726 11.75409412384033 1.413080096244812 11.41602420806885 C 1.521480083465576 11.07796382904053 1.807720065116882 10.84100437164307 2.160069942474365 10.79760360717773 L 10.24975967407227 9.801243782043457 C 10.62372016906738 9.755184173583984 10.94423961639404 9.524853706359863 11.10715961456299 9.185113906860352 L 14.58915042877197 1.923663973808289 C 14.74024963378906 1.608554005622864 15.05121040344238 1.412804007530212 15.40067005157471 1.412804007530212 C 15.75012969970703 1.412804007530212 16.06109046936035 1.608554005622864 16.21219062805176 1.923663973808289 L 19.69417953491211 9.185104370117188 C 19.85709953308105 9.524844169616699 20.17761993408203 9.755184173583984 20.55157089233398 9.801243782043457 L 28.64126968383789 10.79760360717773 C 28.99361991882324 10.84100437164307 29.27985000610352 11.07796382904053 29.38825988769531 11.41602420806885 C 29.49666976928711 11.75409412384033 29.40163040161133 12.11332416534424 29.14023017883301 12.35354423522949 L 23.22077941894531 17.79314422607422 C 22.9411506652832 18.05009460449219 22.81266975402832 18.44126319885254 22.88546943664551 18.81398391723633 L 24.41510963439941 26.64427375793457 C 24.46773910522461 26.91370391845703 24.40224075317383 27.17680358886719 24.23068046569824 27.38513374328613 C 24.05839920043945 27.5943431854248 23.79717063903809 27.71925354003906 23.53189086914063 27.71926307678223 Z"/><path class="j" d="M 15.40067005157471 1.51280403137207 C 15.08532047271729 1.51280403137207 14.81566047668457 1.682554244995117 14.67931938171387 1.966903686523438 L 11.19733047485352 9.228353500366211 C 11.01959991455078 9.598974227905273 10.66994094848633 9.850244522094727 10.26198959350586 9.900493621826172 L 2.172300338745117 10.89685440063477 C 1.854349136352539 10.93601417541504 1.606119155883789 11.14151382446289 1.50830078125 11.44656372070313 C 1.410470962524414 11.75161361694336 1.492900848388672 12.06315422058105 1.728780746459961 12.27991485595703 L 7.648229598999023 17.71950531005859 C 7.953269958496094 17.99982452392578 8.093429565429688 18.42655372619629 8.014009475708008 18.83315277099609 L 6.484390258789063 26.66345405578613 C 6.437580108642578 26.90304374694824 6.495630264282227 27.13678359985352 6.647850036621094 27.32161331176758 C 6.80133056640625 27.50798416137695 7.033700942993164 27.61925315856934 7.269430160522461 27.61925315856934 C 7.400550842285156 27.61925315856934 7.528369903564453 27.58617401123047 7.64933967590332 27.52092361450195 L 14.83096981048584 23.64705467224121 C 15.00543975830078 23.55293464660645 15.20244026184082 23.50319290161133 15.40067005157471 23.50319290161133 C 15.59889984130859 23.50319290161133 15.79590034484863 23.55293464660645 15.97037029266357 23.64705467224121 L 23.15200042724609 27.52091407775879 C 23.27297019958496 27.58617401123047 23.40079116821289 27.61925315856934 23.53190994262695 27.61925315856934 C 23.76762008666992 27.61925315856934 23.99998092651367 27.50797462463379 24.15348052978516 27.32158470153809 C 24.30570030212402 27.13675308227539 24.36375999450684 26.90302467346191 24.31695938110352 26.66344451904297 L 22.78733062744141 18.83315277099609 C 22.70790863037109 18.42655372619629 22.84807014465332 17.99982452392578 23.15311050415039 17.71951293945313 L 29.07255935668945 12.27991485595703 C 29.30843925476074 12.06315422058105 29.390869140625 11.75161361694336 29.29303932189941 11.44656372070313 C 29.19522094726563 11.14151382446289 28.94699096679688 10.93601417541504 28.6290397644043 10.89685440063477 L 20.53935050964355 9.900493621826172 C 20.13140106201172 9.850244522094727 19.78174018859863 9.598974227905273 19.6040096282959 9.228343963623047 L 16.12202072143555 1.966903686523438 C 15.98567008972168 1.682563781738281 15.71601009368896 1.51280403137207 15.40067005157471 1.51280403137207 M 15.40067005157471 1.312801361083984 C 15.76078796386719 1.312801361083984 16.12090492248535 1.502008438110352 16.30236053466797 1.880424499511719 L 19.78435134887695 9.141864776611328 C 19.93173027038574 9.449214935302734 20.22550010681152 9.660324096679688 20.56380081176758 9.701993942260742 L 28.65349006652832 10.69835472106934 C 29.49978065490723 10.80258369445801 29.83572959899902 11.85022354125977 29.20788955688477 12.42717361450195 L 23.2884407043457 17.86677360534668 C 23.03237915039063 18.10207366943359 22.91695022583008 18.4535026550293 22.98361968994141 18.79481506347656 L 24.51325035095215 26.62510299682617 C 24.64115524291992 27.27986145019531 24.12201881408691 27.81925773620605 23.53190612792969 27.81925773620605 C 23.37501907348633 27.81925773620605 23.21315002441406 27.78114891052246 23.05705070495605 27.69694328308105 L 15.87541961669922 23.82307434082031 C 15.72725963592529 23.74315452575684 15.56396484375 23.70319366455078 15.40067005157471 23.70319366455078 C 15.23737525939941 23.70319366455078 15.07408046722412 23.74315452575684 14.9259204864502 23.82307434082031 L 7.744289398193359 27.69694328308105 C 7.588233947753906 27.78112411499023 7.426277160644531 27.81925773620605 7.269433975219727 27.81925773620605 C 6.679265975952148 27.81925773620605 6.160177230834961 27.2799129486084 6.28809928894043 26.62510299682617 L 7.817720413208008 18.79481506347656 C 7.884389877319336 18.4535026550293 7.768960952758789 18.10207366943359 7.512899398803711 17.86677360534668 L 1.593450546264648 12.42717361450195 C 0.9656105041503906 11.85022354125977 1.301559448242188 10.80258369445801 2.147850036621094 10.69835472106934 L 10.23753929138184 9.701993942260742 C 10.57583999633789 9.660324096679688 10.86960983276367 9.449214935302734 11.01699066162109 9.141874313354492 L 14.49897956848145 1.880424499511719 C 14.68043518066406 1.502008438110352 15.04055213928223 1.312801361083984 15.40067005157471 1.312801361083984 Z"/></g></g></g></svg>