<svg xmlns="http://www.w3.org/2000/svg" xmlns:xlink="http://www.w3.org/1999/xlink" width="189" height="189" viewBox="0 0 189 189"><defs><style>.a{fill:#f7fddc;}.b{fill:#ff8000;}.c{filter:url(#a);}</style><filter id="a" x="0" y="0" width="189" height="189" filterUnits="userSpaceOnUse"><feOffset dy="3" input="SourceAlpha"/><feGaussianBlur stdDeviation="3" result="b"/><feFlood flood-opacity="0.161"/><feComposite operator="in" in2="b"/><feComposite in="SourceGraphic"/></filter></defs><g transform="translate(9.152 5.761)"><g class="c" transform="matrix(1, 0, 0, 1, -9.15, -5.76)"><rect class="a" width="171" height="171" rx="85.5" transform="translate(9 6)"/></g><g transform="translate(42.434 51.452)"><g transform="translate(0 0)"><g transform="translate(0 0)"><path class="b" d="M7.558,69.318c11.994,10.158,33.04,28.028,39.225,33.6a3.654,3.654,0,0,0,5.286.007C58.26,97.347,79.306,79.475,91.3,69.318a1.819,1.819,0,0,0,.256-2.512A7.23,7.23,0,0,0,85.841,64H13.016A7.23,7.23,0,0,0,7.3,66.806,1.819,1.819,0,0,0,7.558,69.318Z" transform="translate(-5.734 -64)"/><path class="b" d="M86.334,126.581a1.812,1.812,0,0,0-1.942.263c-13.3,11.276-30.277,25.729-35.618,30.542a7.373,7.373,0,0,1-10.163,0C32.919,152.253,13.855,136.047,3,126.844a1.821,1.821,0,0,0-3,1.389v45.786A7.29,7.29,0,0,0,7.283,181.3H80.108a7.29,7.29,0,0,0,7.282-7.282V128.233A1.819,1.819,0,0,0,86.334,126.581Z" transform="translate(0 -115.759)"/></g></g></g></g></svg>