<svg xmlns="http://www.w3.org/2000/svg" width="253.827" height="273.058" viewBox="0 0 253.827 273.058"><defs><style>.a{fill:#ff8000;}.b{fill:#fff;}.c,.d{fill:#222221;}.d{opacity:0.11;mix-blend-mode:multiply;isolation:isolate;}</style></defs><g transform="translate(-348.147 -63.154)"><path class="a" d="M589.276,137.35a89.361,89.361,0,0,0-21.323-17.058c1.342-.111,2.693-.2,4.064-.233,7.586-.195,9.44-9.5,3.677-13.581a64.155,64.155,0,0,0-40.778-11.789q2.445-4.307,4.893-8.608A7.3,7.3,0,0,0,533.563,75.2a56.99,56.99,0,0,0-27.049,6.716,50.575,50.575,0,0,1,1-6.233c1.262-5.5-3.323-9.575-8.613-8.613a50.885,50.885,0,0,0-28.691,15.776A43.05,43.05,0,0,0,436.539,63.17c-6.12-.4-7.533,6.942-4.489,10.844a53.532,53.532,0,0,1,5.821,9.286,111.175,111.175,0,0,0-51.231.238c-7.528,1.763-6.439,11.929,0,14.194a88.742,88.742,0,0,1,10.914,4.686,163.406,163.406,0,0,0-33.945,18.125c-5.612,3.91-4.056,13.831,3.693,13.636l8.452-.212a166.5,166.5,0,0,0-9.914,14.932c-5.59-2.135-30.439,14.093-9.339,18.356-1.455,3.35-2.828,6.749-4.083,10.219-2.229,6.16,5.345,10.688,10.412,8,.127-.067.257-.12.387-.188a123.323,123.323,0,0,0-11.41,41.072c-.526,5.114,6.442,9.034,10.573,6.069a90.856,90.856,0,0,1,8.481-5.4,117.906,117.906,0,0,0,6.531,49.634c2.164,6.038,9.176,6.572,12.845,1.678a78.933,78.933,0,0,1,7.6-8.692,83.8,83.8,0,0,0,20.256,31.2,7.1,7.1,0,0,0,11.748-3.1,32.283,32.283,0,0,1,4.025-8.663,66.294,66.294,0,0,0,9.849,8.435c-3.958,5.812-4.318,14.158-2.869,21.609a17.864,17.864,0,0,0-8.779-.161c-4.181,1.07-9.188,4.645-8.3,9.589,2.126,11.763,24.524,6.519,30.576,1.8,3.657-2.854.125-7.834-3.643-7.815-3.121-7.5-1.577-14.314.1-21.508a14.728,14.728,0,0,0,6.172.582,12.484,12.484,0,0,0,8.178-5.28c.618-.832,1.717-4,2.626-6.386a72.958,72.958,0,0,1,9.642,10.6c1.729,2.323,5.04,4.612,8.154,3.318q4.779-1.984,9.378-4.22c2.246,8.724,3.073,17.144,1.2,26.378a5.259,5.259,0,0,0-.027,1.926c-2.1,3.1.163,8.428,4.4,8.264,7.692-.3,23.345,1.392,22.182-11.03-.8-8.541-8.911-7.906-15.978-5.6a53.622,53.622,0,0,0-3.47-24.242A170.209,170.209,0,0,0,524.527,281.5a16.559,16.559,0,0,0,5.316,6.85c6.456,4.852,13.838,3.717,19.679-1.445,6.591-5.826,11.065-14.735,13.167-23.167.274-1.1,1.262-5.187,1.741-8.582,2.443,1.609,5.552,3.047,7.75,4.369,3.042,1.832,8.264.955,9.818-2.573,5.578-12.665,6.365-26.375,1.806-38.845l8.791.781c6.05.539,8.428-6.487,6.324-11.017a88.151,88.151,0,0,0-16.928-24.483c1.6-.082,3.2-.161,4.79-.264,5.287-.341,10.27-6.463,6.636-11.568a99.028,99.028,0,0,0-8.022-9.871C595.282,159.964,592.2,132.452,589.276,137.35Z" transform="translate(0)"/><path class="b" d="M373.828,94.113a35.711,35.711,0,0,0,1.916,60.127,15.587,15.587,0,0,0,4.684,1.885,34.515,34.515,0,0,0,9.479,2.453C411.9,160.992,431.83,142.686,431.7,120.5,431.527,93.009,394.911,79.661,373.828,94.113Z" transform="translate(44.227 35.194)"/><path class="b" d="M435.438,89.862c-14.807-3.429-32.288,2.164-39.91,15.932-7.315,13.208-3.371,33.382,11.188,39.961a18.828,18.828,0,0,0,3.609,1.2,30.087,30.087,0,0,0,12.859,2.479c14.708-.478,26.9-11.424,31.206-25.13C459.164,109.12,451.116,93.491,435.438,89.862Z" transform="translate(91.457 36.131)"/><path class="c" d="M383.779,98.262c-10.678.3-21.556,9.748-17.269,20.991a1.741,1.741,0,0,0,3.354-.926c-1.919-9.26,7.692-15.536,15.923-14.858,8.765.726,14.136,7.836,14.906,16.122.291,3.116,5.014,3.244,4.956,0A21.487,21.487,0,0,0,383.779,98.262Z" transform="translate(54.392 49.297)"/><path class="c" d="M414.846,96.849c-9.4-.808-18.635,8.942-15.668,18.339a2.044,2.044,0,0,0,4-.541c.238-6.04,4.381-12.754,11.292-12.131,6.384.575,9.633,7.658,8.257,13.254-.851,3.453,4.124,4.759,5.278,1.457C431.105,108.35,424.267,97.655,414.846,96.849Z" transform="translate(100.828 47.259)"/><path class="d" d="M432.035,109.808c-4.874,21.22-20.787,28.554-41.377,28.2-21.826-.375-29.489-16.413-32.314-35.635a.466.466,0,0,0-.892,0c-3.148,20.662,10.972,38.487,31.687,39.571,21.443,1.12,44.084-7.473,46.53-31.643C435.877,108.221,432.5,107.8,432.035,109.808Z" transform="translate(42.399 54.619)"/><path class="d" d="M455.337,101.512c-3.681,15.3-11.2,28.183-27.917,31.343-17.3,3.265-30.754-7.973-34.072-24.355-.264-1.3-2.08-.875-2.181.293-1.568,18.144,16.88,29.828,33.456,28.585,17.873-1.337,34.69-16.861,33.911-35.433C458.461,100.172,455.782,99.66,455.337,101.512Z" transform="translate(90.239 52.237)"/><path class="d" d="M381.479,88.491c-5.879.654-11.787.952-17.565-.654-5.441-1.512-14.547-7.747-8.009-13.85.921-.861-.255-2.311-1.323-1.714-6.23,3.477-5.511,11.376-.753,15.855,7.012,6.6,19.469,7.084,28.239,4.722C384.4,92.221,384.03,88.207,381.479,88.491Z" transform="translate(32.669 12.61)"/><path class="d" d="M373.578,86.846c-4.249,3.756-8.577,7-13.874,9.108a38.005,38.005,0,0,1-5.634,1.8,14.828,14.828,0,0,1-6.334.341q-6.91-2.608-2.724-8.159c.611-.414.238-1.613-.541-1.284-6.742,2.845-3.563,11.171,2.308,12.917,9.984,2.97,23.122-4.973,29.518-12A1.925,1.925,0,0,0,373.578,86.846Z" transform="translate(19.46 32.532)"/><path class="d" d="M372.786,101.141a141.672,141.672,0,0,1-9.135,15.324,70.068,70.068,0,0,1-6.459,7.779c-2.739,2.808-16.832,14.8-17.652-.245a.873.873,0,0,0-1.707-.231c-2.727,9.344,8.914,12.39,15.62,9.051,10.7-5.333,19.376-19.135,23.288-30.011C377.575,100.487,373.954,99.015,372.786,101.141Z" transform="translate(14.891 51.908)"/><path class="d" d="M361.366,124.832c-2.044,3.763-3.782,7.536-6.519,10.883a41.33,41.33,0,0,1-4.081,4.28q-1.089,1-2.231,1.928-3.095,3.455-7.514.231a1.37,1.37,0,0,0-2.64-.726,4.881,4.881,0,0,0,2.058,5.874c3,1.986,6.656.406,9.375-1.308,6.836-4.309,13.189-11.679,15.574-19.467C366.115,124.154,362.561,122.63,361.366,124.832Z" transform="translate(15.81 85.129)"/><path class="d" d="M368.449,143.588c-1.851,4.234-2.8,8.774-4.763,12.984-1.715,3.674-8.361,14.939-12.8,7.966a1.374,1.374,0,0,0-2.5,1.053c1.724,5.718,8.611,5.129,12.429,1.95,6.05-5.035,9.962-14.858,11.289-22.415C372.457,143.09,369.425,141.352,368.449,143.588Z" transform="translate(30.185 111.499)"/><path class="d" d="M383.691,152.924c-.224-3.109-4.785-3.172-4.884,0-.151,4.932-.284,9.7-1.532,14.514-1.176,4.532-4.742,13.792-11.147,9.474a.373.373,0,0,0-.507.5c3.051,4.511,8.6,3.453,11.9-.358C382.645,171.133,384.232,160.462,383.691,152.924Z" transform="translate(54.413 122.775)"/><path class="d" d="M432.889,164.155c-8.474,10.034-21.59,9.632-29.3-.438a14.387,14.387,0,0,0-1.337-10.188c-1.539-2.688-5.071-.733-4.665,1.967.861,5.718.721,11.222-4.266,15.148-4.917,3.874-11.075,2.96-16.173.091a1.655,1.655,0,0,0-2,2.587c5.687,5.547,15.266,5.841,21.612,1.231a17.785,17.785,0,0,0,5.7-7.336c7.625,12.071,25.861,12.419,34.43.031C438.533,164.889,434.765,161.938,432.889,164.155Z" transform="translate(67.193 125.129)"/><path class="d" d="M440.772,158.236c-8.572,13.965-28.919,9.349-29.212-7.605-.043-2.573-3.766-2.515-3.958,0-1.621,21.225,28.39,29.869,37.2,9.957C445.985,157.9,442.381,155.618,440.772,158.236Z" transform="translate(113.364 120.182)"/><path class="d" d="M447.256,140.866c-.858,5.045-4.386,9.981-10.005,10.082-5.711.1-9.565-4.778-10.71-9.885-.416-1.866-3.164-1.366-3.232.438-.289,7.572,6.336,14.384,13.941,14.449a14.872,14.872,0,0,0,14.656-14.456C451.938,138.9,447.715,138.175,447.256,140.866Z" transform="translate(135.501 106.76)"/><path class="d" d="M456.839,124.885c-.512-2.239-3.669-1.575-3.816.515-.428,6.081-6.653,6.56-11.32,5a23.979,23.979,0,0,1-9.089-5.922c-1.493-1.45-3.438.671-2.222,2.222,3.989,5.09,10.743,9.159,17.411,8.75C453.278,135.109,458.135,130.55,456.839,124.885Z" transform="translate(144.924 84.742)"/><path class="d" d="M447.436,106.764a2,2,0,0,0-.474,3.616c1.553.8,2.325,2.21,1.505,3.893-1.08,2.227-4.088,2.419-6.3,2.349-4.374-.139-8.615-1.647-12.761-2.883-1.484-.442-2.489,1.813-1.07,2.534,5.9,3,17.361,7.514,23.182,2.073C455.5,114.622,453.9,105.561,447.436,106.764Z" transform="translate(141.614 61.097)"/><path class="d" d="M447.4,92.468c-1.551-1.125-3.484,1.041-2.556,2.556,2.842,4.634,8.865,11.217,2.505,15.757-2.429,1.731-5.254,2.09-8.2,1.993-1.57-.053-9.6-.267-9.43-3.169.106-1.787-2.84-2.227-3.162-.428-1.621,9.108,16.731,8.942,21.814,6.581C459.364,110.654,455.476,98.335,447.4,92.468Z" transform="translate(139.937 40.734)"/><path class="d" d="M445.145,80.582a2.044,2.044,0,0,0-3.2,2.465c2.505,5.742-2.061,9.654-7.42,10.63a15.4,15.4,0,0,1-12.662-3.429c-1.59-1.306-3.864.854-2.3,2.3,5.439,5.04,13.386,6.978,20.366,4.008C445.706,94.1,451.5,85.737,445.145,80.582Z" transform="translate(129.518 23.71)"/><path class="d" d="M417.67,70.323a1.044,1.044,0,0,0,1.007,1.731c3.609-1.048,7.125.606,8.137,4.367,1.075,3.994-1.984,7.589-5.023,9.83-4.946,3.645-11.282,4.847-16.5,8.05-2.652,1.628-.248,5.78,2.445,4.184,8.166-4.843,22.143-7.863,23.168-19.448C431.46,72.749,423.347,64.439,417.67,70.323Z" transform="translate(108.591 7.248)"/><path class="d" d="M406.885,68.216c-2.3-3.5-7.964-5.732-11-1.928-.935,1.171.228,3.083,1.7,2.207,2.7-1.606,6,.7,6.365,3.607.486,3.845-2.383,6.9-3.854,10.157-.875,1.94,1.455,4.181,3.135,2.421C407.063,80.674,410.28,73.386,406.885,68.216Z" transform="translate(96.523 1.615)"/><path class="d" d="M379.632,83.807c-5.574-5.35-5.506-11.412-3.1-18.233.548-1.556-1.635-2.717-2.719-1.582-6.172,6.449-3.22,18.065,3.467,22.867C379.087,88.157,381.2,85.313,379.632,83.807Z" transform="translate(61.246 0.537)"/><path class="d" d="M412.792,155c-2.883,3.374-5.6,7.254-10.036,8.692-4.8,1.553-11.717-1.529-10.633-7.442a1.984,1.984,0,0,0-3.208-1.926,2.133,2.133,0,0,0-2.395,1.075c-2.777,4.98-9,17.671-15.627,8.613-4.643-6.343,1-14.321,4.056-19.953.928-1.71-1.457-3.8-2.818-2.174-.07.084-.14.176-.209.26a1.494,1.494,0,0,0-1.258.851c-1.332,2.614-5.333,4.321-7.695,1.868-2.455-2.549-.067-6.935,2.883-7.726,1.707-.457,1.423-3.289-.428-3.16-6.18.433-9.731,8.55-5.576,13.328a8.137,8.137,0,0,0,7.113,2.513c-3.352,6.889-4.352,14.9,2.534,20.167,7.856,6.007,15.608-.68,19.438-8a12.533,12.533,0,0,0,9.091,6.889c7.593,1.4,15.072-4.735,18.426-11.046C417.634,155.6,414.586,152.9,412.792,155Z" transform="translate(43.861 99.469)"/><path class="d" d="M456.522,129.008c-2.441-.253-4.018,3.467-2.08,5.018,2.866,2.3-.952,5.571-3.215,6.55a9.7,9.7,0,0,1-9.7-1.161A2.4,2.4,0,0,0,438,140.492c-2-.082-4.054,2.311-2.087,3.982,2.029,1.724,4.008,3.073,4.922,5.706a8.631,8.631,0,0,1-.957,7.93c-3.766,4.874-11.294,2.772-14.252-1.724-1.214-1.844-4.48-.931-4.227,1.181a1.966,1.966,0,0,0-1.955,1.06c-2.537,5.071-1.654,11.532-8.416,13.674-5.658,1.791-10.1-3.655-6.447-8.531,1.084-1.45-.979-3.2-2.378-2.378-7.531,4.42-2.335,15.329,4.994,16.305a13.787,13.787,0,0,0,11.929-4.783,19.349,19.349,0,0,0,4.655-11.2c4.9,5.377,14.384,6.163,19.712.688a13.511,13.511,0,0,0,3.186-12.083,15.648,15.648,0,0,0-1.145-3.412,14.953,14.953,0,0,0,11.8-2.679C462.136,140.605,465.043,129.891,456.522,129.008Z" transform="translate(100.702 92.476)"/></g></svg>