<svg xmlns="http://www.w3.org/2000/svg" width="168.653" height="153.419" viewBox="0 0 168.653 153.419"><defs><style>.a{fill:#ff8000;}.b{fill:#fff;}.c,.d{fill:#222221;}.d{opacity:0.11;mix-blend-mode:multiply;isolation:isolate;}</style></defs><g transform="translate(-326.825 -63.154)"><path class="a" d="M494.942,87.893c-1.8-6.067-9.217-8.351-13.24-2.967-2.357,3.153-2.325,7.5-3.429,11.146a39.237,39.237,0,0,1-3.988,8.769A50.21,50.21,0,0,0,462.3,95.258c.754-.062,1.513-.111,2.283-.131,4.262-.109,5.3-5.339,2.066-7.63a36.045,36.045,0,0,0-22.912-6.624q1.374-2.42,2.749-4.837a4.1,4.1,0,0,0-3.509-6.116,32.02,32.02,0,0,0-15.2,3.773,28.4,28.4,0,0,1,.562-3.5,3.99,3.99,0,0,0-4.839-4.839,28.59,28.59,0,0,0-16.12,8.864,24.188,24.188,0,0,0-18.919-11.053c-3.438-.227-4.233,3.9-2.522,6.093a30.078,30.078,0,0,1,3.271,5.218,62.464,62.464,0,0,0-28.784.134c-4.23.99-3.618,6.7,0,7.975a49.858,49.858,0,0,1,6.132,2.633A91.809,91.809,0,0,0,347.493,95.4c-3.153,2.2-2.279,7.771,2.075,7.661l4.749-.119a93.542,93.542,0,0,0-5.57,8.39c-3.141-1.2-5.975-2.6-7.555-5.894-1.844-3.845-.22-8.114-1.142-12.15-1.555-6.81-9.554-8.622-12.177-1.454-3.967,10.842,3.771,27.416,15.626,29.811-.817,1.882-1.589,3.792-2.294,5.742-1.252,3.461,3,6.005,5.85,4.5.072-.038.145-.068.217-.105a69.288,69.288,0,0,0-6.41,23.076c-.3,2.874,3.619,5.076,5.94,3.41a51.045,51.045,0,0,1,4.765-3.034,66.247,66.247,0,0,0,3.669,27.887c1.216,3.392,5.155,3.692,7.217.943a44.351,44.351,0,0,1,4.272-4.884A47.081,47.081,0,0,0,378.106,196.7a3.991,3.991,0,0,0,6.6-1.743,18.139,18.139,0,0,1,2.262-4.868,37.246,37.246,0,0,0,5.534,4.739c-2.224,3.265-2.426,7.955-1.612,12.141a10.038,10.038,0,0,0-4.932-.09c-2.349.6-5.162,2.61-4.661,5.388,1.194,6.609,13.779,3.663,17.179,1.009,2.055-1.6.07-4.4-2.047-4.391-1.754-4.212-.886-8.042.054-12.085a8.275,8.275,0,0,0,3.468.327,7.014,7.014,0,0,0,4.595-2.967,26.871,26.871,0,0,0,1.475-3.588,40.991,40.991,0,0,1,5.417,5.955c.971,1.305,2.832,2.591,4.581,1.864q2.685-1.115,5.269-2.371a32.008,32.008,0,0,1,.675,14.82,2.954,2.954,0,0,0-.015,1.082c-1.181,1.744.092,4.735,2.472,4.643,4.322-.168,13.117.782,12.463-6.2-.451-4.8-5.007-4.442-8.977-3.146a30.129,30.129,0,0,0-1.95-13.621,95.64,95.64,0,0,0,11.947-7.775,9.3,9.3,0,0,0,2.987,3.849c3.627,2.726,7.775,2.089,11.057-.812,3.7-3.273,6.217-8.279,7.4-13.017.154-.62.709-2.914.978-4.822,1.373.9,3.12,1.712,4.354,2.455,1.709,1.029,4.643.536,5.516-1.446a29.054,29.054,0,0,0,1.015-21.825l4.939.439c3.4.3,4.735-3.645,3.553-6.19a49.527,49.527,0,0,0-9.511-13.756c.9-.046,1.8-.091,2.691-.149,2.971-.192,5.77-3.631,3.729-6.5a55.629,55.629,0,0,0-4.507-5.546,26.041,26.041,0,0,0,14.539-8.6C491.587,104.35,497.264,95.709,494.942,87.893Z" transform="translate(0 0)"/><path class="b" d="M367.031,91.527a20.064,20.064,0,0,0,1.077,33.783,8.758,8.758,0,0,0,2.632,1.059,19.394,19.394,0,0,0,5.326,1.378c12.355,1.356,23.555-8.929,23.479-21.392C399.449,90.907,378.876,83.408,367.031,91.527Z" transform="translate(11.053 8.795)"/><path class="b" d="M416.38,89.432c-8.32-1.927-18.141,1.216-22.424,8.952-4.11,7.421-1.894,18.756,6.286,22.452a10.578,10.578,0,0,0,2.028.677,16.9,16.9,0,0,0,7.225,1.393c8.264-.269,15.112-6.419,17.533-14.119C429.711,100.252,425.189,91.47,416.38,89.432Z" transform="translate(22.856 9.029)"/><path class="c" d="M375.793,98.258c-6,.168-12.112,5.477-9.7,11.794a.978.978,0,0,0,1.885-.52c-1.078-5.2,4.322-8.729,8.946-8.348,4.924.408,7.943,4.4,8.375,9.058.164,1.751,2.817,1.822,2.784,0A12.073,12.073,0,0,0,375.793,98.258Z" transform="translate(13.593 12.32)"/><path class="c" d="M407.734,96.829c-5.282-.454-10.47,5.024-8.8,10.3a1.149,1.149,0,0,0,2.245-.3c.134-3.394,2.461-7.166,6.344-6.816,3.587.323,5.412,4.3,4.639,7.447a1.539,1.539,0,0,0,2.965.819C416.869,103.291,413.027,97.281,407.734,96.829Z" transform="translate(25.197 11.81)"/><path class="b" d="M378.209,131.278q-1.141-.45-2.28-.9a1.942,1.942,0,0,0-.978-.634c-.295-.078-.582-.145-.873-.207a1.67,1.67,0,0,0-.331-.065c-.059-.012-.12-.018-.18-.028l-.059-.023v.014c-.216-.036-.43-.078-.655-.1a2.445,2.445,0,0,0-2.428,2.144,2.37,2.37,0,0,0,.5,1.81,28.57,28.57,0,0,1-.538,3.242c-.492,1.881,1.758,4.01,3.542,2.725l4.866-3.506A2.484,2.484,0,0,0,378.209,131.278Z" transform="translate(15.265 23.224)"/><path class="b" d="M409.327,127.348c0,.4-.02.8-.038,1.206a5.988,5.988,0,0,0-.558-.311c-1.193-.565-3.114.405-2.518,1.937a7.6,7.6,0,0,0,1.718,2.533c.655.678,1.5,1.189,2.132,1.854,1.223,1.282,3.9.782,4.222-1.115a42.781,42.781,0,0,0,.28-6.105C414.645,123.98,409.369,123.974,409.327,127.348Z" transform="translate(27.826 21.644)"/><path class="c" d="M435.6,117.538c-7.533,12.263-21.069,18.827-35.261,19.153-13.672.313-30.595-3.672-38.42-15.872-.665-1.036-2.64-.372-2.108.889,6.089,14.452,25.412,18.39,39.49,18.145,15.657-.273,30.774-7.029,39.063-20.7C439.436,117.387,436.679,115.784,435.6,117.538Z" transform="translate(11.547 18.822)"/><path class="d" d="M399.164,106.406c-2.738,11.923-11.679,16.043-23.248,15.844-12.263-.211-16.569-9.222-18.156-20.022a.262.262,0,0,0-.5,0c-1.768,11.609,6.165,21.624,17.8,22.233,12.048.63,24.769-4.2,26.143-17.779C401.323,105.514,399.424,105.275,399.164,106.406Z" transform="translate(10.596 13.65)"/><path class="d" d="M427.181,101c-2.068,8.6-6.293,15.835-15.685,17.61-9.718,1.835-17.279-4.48-19.144-13.684-.149-.732-1.169-.492-1.225.165-.881,10.195,9.484,16.759,18.8,16.061,10.042-.751,19.491-9.473,19.053-19.908A.919.919,0,0,0,427.181,101Z" transform="translate(22.551 13.054)"/><path class="d" d="M367.724,81.324a25.814,25.814,0,0,1-9.869-.367c-3.057-.85-8.173-4.353-4.5-7.782.517-.484-.143-1.3-.743-.963-3.5,1.954-3.1,6.392-.423,8.908,3.94,3.71,10.939,3.98,15.866,2.653C369.367,83.419,369.157,81.164,367.724,81.324Z" transform="translate(8.164 3.151)"/><path class="d" d="M359.164,86.614a26.63,26.63,0,0,1-7.8,5.118,21.353,21.353,0,0,1-3.165,1.011,8.331,8.331,0,0,1-3.559.192q-3.883-1.465-1.531-4.584c.343-.232.134-.907-.3-.721-3.788,1.6-2,6.277,1.3,7.258,5.609,1.668,12.991-2.794,16.585-6.743A1.082,1.082,0,0,0,359.164,86.614Z" transform="translate(4.863 8.13)"/><path class="d" d="M357.293,100.69a79.6,79.6,0,0,1-5.132,8.61,39.362,39.362,0,0,1-3.629,4.37c-1.539,1.578-9.457,8.315-9.918-.138a.491.491,0,0,0-.959-.13c-1.532,5.25,5.008,6.962,8.776,5.085,6.013-3,10.886-10.751,13.084-16.862C359.985,100.323,357.95,99.5,357.293,100.69Z" transform="translate(3.721 12.972)"/><path class="d" d="M351.164,124.365a37.393,37.393,0,0,1-3.663,6.115,23.218,23.218,0,0,1-2.293,2.4q-.612.559-1.254,1.084-1.739,1.941-4.222.13a.77.77,0,0,0-1.483-.408,2.742,2.742,0,0,0,1.156,3.3c1.687,1.116,3.74.228,5.268-.735a21.2,21.2,0,0,0,8.75-10.938A1.242,1.242,0,0,0,351.164,124.365Z" transform="translate(3.951 21.274)"/><path class="d" d="M359.628,143.129c-1.04,2.379-1.573,4.93-2.676,7.3-.963,2.064-4.7,8.394-7.194,4.476a.772.772,0,0,0-1.405.592c.969,3.213,4.838,2.882,6.983,1.1,3.4-2.829,5.6-8.348,6.343-12.594C361.88,142.849,360.176,141.872,359.628,143.129Z" transform="translate(7.543 27.864)"/><path class="d" d="M375.75,151.892a1.373,1.373,0,0,0-2.744,0,36.289,36.289,0,0,1-.861,8.155c-.661,2.547-2.664,7.749-6.263,5.323a.209.209,0,0,0-.285.284c1.714,2.534,4.831,1.94,6.683-.2C375.162,162.123,376.054,156.127,375.75,151.892Z" transform="translate(13.598 30.682)"/><path class="d" d="M407.379,158.937c-4.761,5.638-12.131,5.412-16.462-.246a8.083,8.083,0,0,0-.751-5.724c-.865-1.51-2.849-.412-2.621,1.105.484,3.213.405,6.305-2.4,8.511-2.763,2.176-6.223,1.663-9.087.051a.93.93,0,0,0-1.121,1.454,9.7,9.7,0,0,0,12.143.692,9.992,9.992,0,0,0,3.2-4.122c4.284,6.782,14.53,6.978,19.345.018C410.55,159.349,408.433,157.691,407.379,158.937Z" transform="translate(16.792 31.27)"/><path class="d" d="M426.211,154.068c-4.816,7.847-16.248,5.253-16.413-4.273a1.113,1.113,0,0,0-2.224,0c-.911,11.925,15.951,16.782,20.9,5.594A1.31,1.31,0,0,0,426.211,154.068Z" transform="translate(28.33 30.034)"/><path class="d" d="M436.76,140.121c-.482,2.834-2.464,5.608-5.622,5.665-3.209.058-5.374-2.684-6.017-5.554-.234-1.048-1.778-.767-1.816.246a8.079,8.079,0,0,0,7.833,8.118,8.356,8.356,0,0,0,8.234-8.122C439.39,139.017,437.018,138.609,436.76,140.121Z" transform="translate(33.863 26.68)"/><path class="d" d="M445.083,124.274c-.288-1.258-2.062-.885-2.144.289-.24,3.417-3.738,3.686-6.36,2.807a13.473,13.473,0,0,1-5.107-3.327c-.839-.815-1.932.377-1.248,1.248,2.241,2.86,6.036,5.146,9.783,4.916C443.083,130.018,445.812,127.457,445.083,124.274Z" transform="translate(36.217 21.178)"/><path class="d" d="M438.768,106.716a1.122,1.122,0,0,0-.266,2.032,1.555,1.555,0,0,1,.846,2.187c-.607,1.251-2.3,1.359-3.541,1.32a28.741,28.741,0,0,1-7.17-1.62c-.834-.249-1.4,1.019-.6,1.424,3.314,1.687,9.754,4.222,13.025,1.165C443.3,111.131,442.4,106.04,438.768,106.716Z" transform="translate(35.39 15.268)"/><path class="d" d="M438.224,92.332c-.871-.632-1.958.585-1.436,1.436,1.6,2.6,4.981,6.3,1.408,8.853a7.224,7.224,0,0,1-4.606,1.12c-.882-.03-5.395-.15-5.3-1.781.059-1-1.6-1.251-1.777-.24-.911,5.118,9.4,5.024,12.256,3.7C444.946,102.549,442.762,95.628,438.224,92.332Z" transform="translate(34.971 10.18)"/><path class="d" d="M433.708,80.343a1.149,1.149,0,0,0-1.8,1.385c1.408,3.226-1.158,5.424-4.169,5.973a8.654,8.654,0,0,1-7.114-1.927c-.893-.734-2.171.48-1.294,1.293a10.752,10.752,0,0,0,11.443,2.252C434.022,87.938,437.277,83.239,433.708,80.343Z" transform="translate(32.367 5.925)"/><path class="d" d="M411.742,69.443a.586.586,0,0,0,.566.973,3.5,3.5,0,0,1,4.572,2.453c.6,2.244-1.115,4.264-2.822,5.523-2.779,2.048-6.339,2.724-9.271,4.523a1.362,1.362,0,0,0,1.374,2.351c4.588-2.721,12.441-4.418,13.017-10.927C419.49,70.806,414.932,66.137,411.742,69.443Z" transform="translate(27.138 1.811)"/><path class="d" d="M401.918,66.5c-1.29-1.964-4.474-3.221-6.181-1.083-.526.658.128,1.732.956,1.24,1.519-.9,3.371.393,3.576,2.026.273,2.16-1.339,3.876-2.166,5.707-.492,1.09.817,2.349,1.762,1.36C402.018,73.5,403.825,69.407,401.918,66.5Z" transform="translate(24.122 0.403)"/><path class="d" d="M375.6,74.926c-3.132-3.006-3.094-6.412-1.743-10.245a.921.921,0,0,0-1.528-.889c-3.468,3.623-1.809,10.15,1.948,12.848C375.294,77.37,376.481,75.772,375.6,74.926Z" transform="translate(15.306 0.134)"/><path class="d" d="M388.808,145.788c-1.62,1.9-3.146,4.076-5.639,4.884-2.7.873-6.583-.859-5.974-4.181a1.115,1.115,0,0,0-1.8-1.082,1.2,1.2,0,0,0-1.346.6c-1.56,2.8-5.055,9.928-8.78,4.839-2.609-3.564.563-8.047,2.279-11.211.521-.961-.819-2.133-1.583-1.221-.039.047-.078.1-.117.146a.84.84,0,0,0-.707.478c-.748,1.469-3,2.428-4.323,1.05-1.379-1.432-.038-3.9,1.62-4.341.959-.257.8-1.848-.24-1.775-3.472.243-5.467,4.8-3.133,7.489a4.572,4.572,0,0,0,4,1.412c-1.883,3.871-2.445,8.372,1.424,11.331,4.414,3.375,8.769-.382,10.921-4.5a7.042,7.042,0,0,0,5.108,3.871c4.266.786,8.468-2.66,10.353-6.206C391.529,146.123,389.816,144.609,388.808,145.788Z" transform="translate(10.961 24.858)"/><path class="d" d="M431.11,129a1.666,1.666,0,0,0-1.169,2.82c1.61,1.29-.535,3.13-1.806,3.68a5.451,5.451,0,0,1-5.447-.653,1.348,1.348,0,0,0-1.982.605c-1.123-.046-2.278,1.3-1.173,2.237,1.14.969,2.252,1.727,2.765,3.206a4.849,4.849,0,0,1-.538,4.456c-2.116,2.738-6.346,1.558-8.007-.969-.682-1.036-2.517-.523-2.375.663a1.1,1.1,0,0,0-1.1.6c-1.425,2.849-.93,6.479-4.729,7.683-3.179,1.007-5.673-2.054-3.622-4.793.609-.815-.55-1.8-1.336-1.336-4.231,2.483-1.312,8.613,2.806,9.161a7.746,7.746,0,0,0,6.7-2.687,10.872,10.872,0,0,0,2.616-6.29c2.755,3.021,8.082,3.463,11.075.386a7.591,7.591,0,0,0,1.79-6.789,8.8,8.8,0,0,0-.643-1.917,8.4,8.4,0,0,0,6.631-1.505C434.265,135.519,435.9,129.5,431.11,129Z" transform="translate(25.166 23.11)"/></g></svg>