<svg xmlns="http://www.w3.org/2000/svg" xmlns:xlink="http://www.w3.org/1999/xlink" width="231" height="246" viewBox="0 0 231 246"><defs><style>.a,.d{fill:#fff;}.a{stroke:#707070;}.b{clip-path:url(#a);}.c{fill:#ff8000;}.e,.f{fill:#222221;}.f{opacity:0.11;mix-blend-mode:multiply;isolation:isolate;}.g,.h,.i,.l{fill:none;}.g,.h,.i{stroke:#000;}.g,.h{stroke-linecap:round;}.g{stroke-width:3px;}.h,.i{stroke-width:5px;}.j{fill:#e77400;}.k{stroke:none;}</style><clipPath id="a"><rect class="a" width="231" height="246" transform="translate(48.959 2420)"/></clipPath></defs><g class="b" transform="translate(-48.959 -2420)"><g transform="translate(45.959 199)"><g transform="translate(-390.817 2173.41)"><path class="c" d="M608.952,144.168a97.577,97.577,0,0,0-23.283-18.625c1.465-.121,2.941-.215,4.437-.255,8.283-.213,10.307-10.376,4.014-14.829A70.049,70.049,0,0,0,549.6,97.587q2.67-4.7,5.343-9.4A7.973,7.973,0,0,0,548.12,76.3a62.226,62.226,0,0,0-29.534,7.333,55.182,55.182,0,0,1,1.092-6.805c1.378-6-3.629-10.455-9.4-9.4a55.561,55.561,0,0,0-31.327,17.226,47.006,47.006,0,0,0-36.767-21.479c-6.682-.441-8.226,7.58-4.9,11.841a58.45,58.45,0,0,1,6.356,10.14,121.391,121.391,0,0,0-55.938.26c-8.22,1.924-7.031,13.025,0,15.5a96.9,96.9,0,0,1,11.917,5.117,178.416,178.416,0,0,0-37.064,19.791c-6.128,4.269-4.429,15.1,4.033,14.889l9.229-.231a181.782,181.782,0,0,0-10.825,16.3c-6.1-2.331,4.975-7.591-10.2,20.043-1.588,3.657-3.088,7.37-4.458,11.158-2.434,6.726,5.836,11.67,11.368,8.738.139-.074.281-.131.423-.2a134.653,134.653,0,0,0-12.458,44.846c-.575,5.584,7.034,9.864,11.544,6.627a99.192,99.192,0,0,1,9.26-5.9,128.74,128.74,0,0,0,7.131,54.2c2.363,6.593,10.019,7.175,14.025,1.833a86.194,86.194,0,0,1,8.3-9.491,91.5,91.5,0,0,0,22.117,34.063A7.757,7.757,0,0,0,434.87,319.3a35.249,35.249,0,0,1,4.395-9.46,72.381,72.381,0,0,0,10.754,9.21c-4.321,6.346-4.715,15.459-3.132,23.6a19.506,19.506,0,0,0-9.586-.176c-4.566,1.168-10.032,5.072-9.058,10.47,2.321,12.844,26.777,7.118,33.385,1.961,3.993-3.116.137-8.554-3.977-8.533-3.408-8.186-1.722-15.629.1-23.485a16.083,16.083,0,0,0,6.74.635,13.632,13.632,0,0,0,8.929-5.766c.675-.908,1.875-4.364,2.867-6.973a79.659,79.659,0,0,1,10.528,11.573c1.888,2.536,5.5,5.036,8.9,3.623q5.218-2.166,10.24-4.608c2.452,9.525,3.355,18.72,1.313,28.8a5.742,5.742,0,0,0-.029,2.1c-2.295,3.389.179,9.2,4.8,9.024,8.4-.326,25.491,1.52,24.22-12.043-.877-9.326-9.73-8.633-17.446-6.115a58.551,58.551,0,0,0-3.789-26.47,185.86,185.86,0,0,0,23.217-15.11,18.08,18.08,0,0,0,5.8,7.48c7.049,5.3,15.11,4.059,21.487-1.578,7.2-6.362,12.082-16.089,14.377-25.3.3-1.205,1.378-5.663,1.9-9.37,2.668,1.756,6.062,3.326,8.462,4.77,3.321,2,9.024,1.042,10.72-2.809,6.091-13.828,6.95-28.8,1.972-42.415l9.6.853c6.606.588,9.2-7.084,6.905-12.03A96.252,96.252,0,0,0,601,194.435c1.743-.089,3.489-.176,5.23-.289,5.773-.373,11.213-7.057,7.246-12.631a108.106,108.106,0,0,0-8.759-10.778C615.51,168.86,612.142,138.82,608.952,144.168Z" transform="translate(0 0)"/><path class="d" d="M375.253,94.655a38.992,38.992,0,0,0,2.092,65.653,17.02,17.02,0,0,0,5.114,2.058,37.689,37.689,0,0,0,10.35,2.678c24.01,2.636,45.775-17.352,45.628-41.572C438.254,93.45,398.274,78.876,375.253,94.655Z" transform="translate(46.743 40.731)"/><path class="d" d="M439.435,89.953c-16.168-3.744-35.255,2.363-43.578,17.4-7.987,14.422-3.681,36.45,12.216,43.633a20.554,20.554,0,0,0,3.941,1.315A32.853,32.853,0,0,0,426.056,155c16.06-.522,29.369-12.474,34.073-27.439C465.341,110.98,456.553,93.915,439.435,89.953Z" transform="translate(101.404 41.815)"/><path class="e" d="M385.454,98.263c-11.66.326-23.537,10.644-18.856,22.92a1.9,1.9,0,0,0,3.663-1.011c-2.1-10.111,8.4-16.963,17.386-16.223,9.57.793,15.435,8.556,16.275,17.6.318,3.4,5.474,3.542,5.411,0C409.112,108.6,398.6,97.9,385.454,98.263Z" transform="translate(58.508 57.053)"/><path class="e" d="M416.338,96.854c-10.266-.882-20.347,9.764-17.108,20.025a2.232,2.232,0,0,0,4.364-.591c.26-6.6,4.784-13.926,12.329-13.246,6.971.627,10.518,8.362,9.016,14.472-.929,3.77,4.5,5.2,5.763,1.591C434.091,109.411,426.624,97.733,416.338,96.854Z" transform="translate(112.248 54.694)"/><path class="f" d="M438.929,110.522c-5.322,23.17-22.7,31.178-45.179,30.792-23.831-.41-32.2-17.922-35.284-38.91a.509.509,0,0,0-.974,0c-3.437,22.561,11.98,42.023,34.6,43.207,23.414,1.223,48.135-8.16,50.806-34.551C443.124,108.789,439.433,108.324,438.929,110.522Z" transform="translate(44.628 63.212)"/><path class="f" d="M461.242,101.619c-4.02,16.7-12.229,30.773-30.482,34.223-18.885,3.565-33.58-8.706-37.2-26.593-.289-1.423-2.271-.956-2.381.32-1.712,19.812,18.431,32.569,36.531,31.212,19.515-1.46,37.878-18.41,37.027-38.689C464.653,100.156,461.728,99.6,461.242,101.619Z" transform="translate(99.994 60.455)"/><path class="f" d="M384.364,89.994c-6.419.714-12.87,1.04-19.179-.714-5.941-1.651-15.884-8.459-8.745-15.123,1.006-.94-.278-2.523-1.444-1.872-6.8,3.8-6.018,12.421-.822,17.312,7.656,7.21,21.259,7.735,30.834,5.156C387.556,94.067,387.149,89.685,384.364,89.994Z" transform="translate(33.367 14.594)"/><path class="f" d="M376.6,86.895c-4.639,4.1-9.365,7.643-15.149,9.945A41.491,41.491,0,0,1,355.3,98.8a16.19,16.19,0,0,1-6.915.373q-7.546-2.847-2.975-8.908c.667-.452.26-1.762-.591-1.4-7.362,3.106-3.891,12.2,2.52,14.1,10.9,3.242,25.247-5.429,32.23-13.1A2.1,2.1,0,0,0,376.6,86.895Z" transform="translate(18.08 37.65)"/><path class="f" d="M376.035,101.235c-3.14,5.708-6.133,11.447-9.974,16.732a76.494,76.494,0,0,1-7.052,8.493c-2.99,3.067-18.378,16.16-19.274-.268a.954.954,0,0,0-1.864-.252c-2.977,10.2,9.733,13.529,17.055,9.882,11.686-5.823,21.156-20.894,25.428-32.769C381.265,100.521,377.311,98.914,376.035,101.235Z" transform="translate(12.792 60.074)"/><path class="f" d="M363.506,124.93c-2.232,4.109-4.13,8.228-7.118,11.883a45.116,45.116,0,0,1-4.455,4.673q-1.189,1.087-2.436,2.106-3.379,3.773-8.2.252a1.5,1.5,0,0,0-2.883-.793,5.329,5.329,0,0,0,2.247,6.414c3.279,2.169,7.267.444,10.237-1.428,7.464-4.7,14.4-12.752,17.005-21.256C368.691,124.19,364.811,122.525,363.506,124.93Z" transform="translate(13.855 98.522)"/><path class="f" d="M370.3,143.684c-2.022,4.623-3.056,9.58-5.2,14.178-1.872,4.012-9.129,16.312-13.981,8.7-.882-1.386-3.237-.528-2.73,1.15,1.882,6.243,9.4,5.6,13.571,2.129,6.606-5.5,10.877-16.223,12.327-24.475C374.676,143.141,371.365,141.242,370.3,143.684Z" transform="translate(30.492 129.04)"/><path class="f" d="M385.357,153.14c-.244-3.395-5.225-3.463-5.332,0-.165,5.385-.31,10.591-1.672,15.847-1.284,4.949-5.177,15.06-12.172,10.344a.407.407,0,0,0-.554.551c3.332,4.925,9.389,3.77,12.988-.391C384.215,173.023,385.947,161.371,385.357,153.14Z" transform="translate(58.531 142.09)"/><path class="f" d="M438.24,165.25c-9.252,10.956-23.574,10.518-31.991-.478a15.709,15.709,0,0,0-1.46-11.124c-1.68-2.935-5.537-.8-5.093,2.148.94,6.243.788,12.253-4.658,16.541-5.369,4.23-12.093,3.232-17.659.1a1.807,1.807,0,0,0-2.179,2.825c6.209,6.057,16.669,6.377,23.6,1.344a19.418,19.418,0,0,0,6.225-8.01c8.325,13.18,28.237,13.561,37.594.034C444.4,166.05,440.287,162.829,438.24,165.25Z" transform="translate(73.323 144.814)"/><path class="f" d="M443.826,159.11c-9.36,15.249-31.577,10.208-31.9-8.3-.047-2.809-4.111-2.746-4.322,0-1.77,23.175,31,32.614,40.614,10.872C449.518,158.748,445.583,156.251,443.826,159.11Z" transform="translate(126.757 139.089)"/><path class="f" d="M449.457,141.022c-.937,5.508-4.789,10.9-10.925,11.009-6.235.113-10.444-5.217-11.694-10.793-.454-2.037-3.455-1.491-3.529.478-.315,8.268,6.918,15.706,15.223,15.777a16.238,16.238,0,0,0,16-15.784C454.569,138.877,449.959,138.084,449.457,141.022Z" transform="translate(152.377 123.556)"/><path class="f" d="M459.3,125.013c-.559-2.444-4.006-1.72-4.167.562-.467,6.64-7.265,7.162-12.361,5.456a26.183,26.183,0,0,1-9.924-6.467c-1.63-1.583-3.754.732-2.426,2.426,4.356,5.558,11.731,10,19.011,9.554C455.416,136.177,460.719,131.2,459.3,125.013Z" transform="translate(163.282 98.074)"/><path class="f" d="M449.254,106.774c-1.814.339-2.111,3.13-.517,3.949,1.7.874,2.539,2.413,1.644,4.251-1.179,2.431-4.463,2.641-6.881,2.565-4.776-.152-9.407-1.8-13.933-3.148-1.62-.483-2.717,1.98-1.168,2.767,6.44,3.279,18.956,8.2,25.312,2.263C458.06,115.354,456.317,105.461,449.254,106.774Z" transform="translate(159.451 70.709)"/><path class="f" d="M449.323,92.5c-1.693-1.229-3.8,1.137-2.791,2.791,3.1,5.059,9.68,12.248,2.736,17.2-2.652,1.89-5.737,2.282-8.95,2.177-1.714-.058-10.484-.291-10.3-3.46.116-1.951-3.1-2.431-3.453-.467-1.77,9.945,18.268,9.764,23.818,7.186C462.388,112.353,458.142,98.9,449.323,92.5Z" transform="translate(157.51 47.142)"/><path class="f" d="M447.544,80.632a2.232,2.232,0,0,0-3.489,2.691c2.736,6.27-2.25,10.541-8.1,11.607a16.817,16.817,0,0,1-13.826-3.744c-1.736-1.426-4.219.932-2.515,2.513,5.939,5.5,14.616,7.619,22.238,4.377C448.156,95.393,454.481,86.261,447.544,80.632Z" transform="translate(145.452 27.441)"/><path class="f" d="M418.913,70.507a1.14,1.14,0,0,0,1.1,1.89c3.941-1.145,7.779.662,8.885,4.768,1.174,4.361-2.166,8.286-5.485,10.733-5.4,3.98-12.319,5.293-18.016,8.79-2.9,1.777-.27,6.312,2.67,4.568,8.916-5.288,24.178-8.585,25.3-21.235C433.97,73.156,425.112,64.083,418.913,70.507Z" transform="translate(121.233 8.388)"/><path class="f" d="M407.927,68.576c-2.507-3.817-8.7-6.259-12.011-2.106-1.021,1.279.249,3.366,1.859,2.41,2.951-1.754,6.551.764,6.95,3.938.53,4.2-2.6,7.533-4.209,11.09-.956,2.119,1.588,4.566,3.424,2.644C408.121,82.178,411.634,74.221,407.927,68.576Z" transform="translate(107.267 1.869)"/><path class="f" d="M380.478,85.67c-6.086-5.842-6.012-12.461-3.387-19.909.6-1.7-1.785-2.967-2.969-1.728-6.74,7.042-3.516,19.725,3.786,24.968C379.882,90.42,382.187,87.314,380.478,85.67Z" transform="translate(66.44 0.622)"/><path class="f" d="M417.822,156.932c-3.148,3.684-6.115,7.921-10.959,9.491-5.24,1.7-12.794-1.67-11.61-8.126a2.166,2.166,0,0,0-3.5-2.1,2.329,2.329,0,0,0-2.615,1.174c-3.032,5.437-9.824,19.295-17.063,9.4-5.07-6.926,1.095-15.637,4.429-21.786,1.013-1.867-1.591-4.146-3.077-2.373-.076.092-.152.192-.228.284a1.632,1.632,0,0,0-1.373.929c-1.455,2.854-5.823,4.718-8.4,2.04-2.681-2.783-.073-7.572,3.148-8.436,1.864-.5,1.554-3.592-.467-3.45-6.747.473-10.625,9.336-6.089,14.553a8.884,8.884,0,0,0,7.766,2.744c-3.66,7.522-4.752,16.27,2.767,22.02,8.577,6.558,17.042-.743,21.224-8.74a13.685,13.685,0,0,0,9.927,7.522c8.291,1.528,16.457-5.17,20.119-12.061C423.11,157.583,419.781,154.64,417.822,156.932Z" transform="translate(46.319 115.118)"/><path class="f" d="M461.851,129.009c-2.665-.276-4.387,3.786-2.271,5.479,3.13,2.507-1.04,6.083-3.51,7.152a10.594,10.594,0,0,1-10.586-1.268c-1.465-1.058-3.122-.173-3.852,1.176-2.182-.089-4.427,2.523-2.279,4.348,2.216,1.882,4.377,3.355,5.374,6.23a9.424,9.424,0,0,1-1.045,8.659c-4.112,5.322-12.332,3.027-15.561-1.883-1.326-2.014-4.891-1.016-4.616,1.289a2.147,2.147,0,0,0-2.134,1.158c-2.77,5.537-1.806,12.592-9.189,14.931-6.178,1.956-11.024-3.991-7.039-9.315,1.184-1.583-1.068-3.492-2.6-2.6-8.223,4.826-2.549,16.737,5.453,17.8a15.054,15.054,0,0,0,13.025-5.222c2.6-2.975,4.991-7.887,5.083-12.224,5.353,5.871,15.706,6.729,21.524.751a14.753,14.753,0,0,0,3.479-13.193,17.088,17.088,0,0,0-1.25-3.726,16.327,16.327,0,0,0,12.886-2.925C467.982,141.672,471.156,129.973,461.851,129.009Z" transform="translate(112.103 107.024)"/><path class="g" d="M696.326-2252.95c17.22,7.94,3.228,10.412,0,14.119-2.024,2.325,8.206,4.633,7.6,7.583s-1.531,2.705-10.038,4.214" transform="translate(-199.183 2469.59)"/></g><g transform="translate(8 15)"><g transform="translate(5 12)"><line class="h" y2="29" transform="translate(148.5 2392.5)"/><g class="i" transform="translate(137 2360)"><ellipse class="k" cx="11" cy="17.5" rx="11" ry="17.5"/><ellipse class="l" cx="11" cy="17.5" rx="8.5" ry="15"/></g></g></g><path class="j" d="M819.77-2118.21s-68.574-70.462-83.393-65.56c-7.957,2.632-4.849,9.618.789,15.061,4.456,4.3,75.194,68.809,75.194,68.809l26.586,22.876Z" transform="translate(-1460.13 4074.192) rotate(26)"/></g></g></svg>