<svg xmlns="http://www.w3.org/2000/svg" xmlns:xlink="http://www.w3.org/1999/xlink" width="120" height="120" viewBox="0 0 120 120"><defs><style>.a{fill:#ff8000;}.b{fill:#4ccbf9;}.c{fill:#f7fddc;}.d{fill:#0a0a0a;}.e,.f{stroke:none;}.g{filter:url(#a);}</style><filter id="a" x="0" y="0" width="120" height="120" filterUnits="userSpaceOnUse"><feOffset dy="3" input="SourceAlpha"/><feGaussianBlur stdDeviation="3" result="b"/><feFlood flood-opacity="0.161"/><feComposite operator="in" in2="b"/><feComposite in="SourceGraphic"/></filter></defs><g transform="translate(-130.433 -555.34)"><g class="g" transform="matrix(1, 0, 0, 1, 130.43, 555.34)"><circle class="a" cx="51" cy="51" r="51" transform="translate(9 6)"/></g><g transform="translate(155.536 590.455)"><g class="b" transform="translate(-0.104 -0.115)"><path class="e" d="M 60.00030136108398 44.95000076293945 L 9.000002861022949 44.95000076293945 C 4.064952373504639 44.95000076293945 0.05000258609652519 40.93505096435547 0.05000258609652519 36 L 0.05000258609652519 12.27239990234375 C 0.05000258609652519 7.337349891662598 4.064952373504639 3.322400093078613 9.000002861022949 3.322400093078613 L 21.87810325622559 3.322400093078613 L 21.92810249328613 3.322400093078613 L 21.92810249328613 3.27239990234375 L 21.92810249328613 1.999799966812134 C 21.92810249328613 0.9246799945831299 22.80278205871582 0.05000000074505806 23.87790298461914 0.05000000074505806 L 45.9630012512207 0.05000000074505806 C 47.03862380981445 0.05000000074505806 47.91370391845703 0.9246799945831299 47.91370391845703 1.999799966812134 L 47.91370391845703 3.27239990234375 L 47.91370391845703 3.322400093078613 L 47.96370315551758 3.322400093078613 L 60.00030136108398 3.322400093078613 C 64.93535614013672 3.322400093078613 68.95030212402344 7.337349891662598 68.95030212402344 12.27239990234375 L 68.95030212402344 36 C 68.95030212402344 40.93505096435547 64.93535614013672 44.95000076293945 60.00030136108398 44.95000076293945 Z"/><path class="f" d="M 60.00030136108398 44.90000152587891 C 64.90778350830078 44.90000152587891 68.90029907226563 40.90747833251953 68.90029907226563 36 L 68.90029907226563 12.27239990234375 C 68.90029907226563 7.364920139312744 64.90778350830078 3.372400045394897 60.00030136108398 3.372400045394897 L 47.96370315551758 3.372400045394897 L 47.86370086669922 3.372400045394897 L 47.86370086669922 3.27239990234375 L 47.86370086669922 1.999799966812134 C 47.86370086669922 0.9522500038146973 47.01105117797852 0.1000000014901161 45.9630012512207 0.1000000014901161 L 23.87790298461914 0.1000000014901161 C 22.83035278320313 0.1000000014901161 21.97810173034668 0.9522500038146973 21.97810173034668 1.999799966812134 L 21.97810173034668 3.27239990234375 L 21.97810173034668 3.372400045394897 L 21.87810325622559 3.372400045394897 L 9.000002861022949 3.372400045394897 C 4.092522621154785 3.372400045394897 0.1000025868415833 7.364920139312744 0.1000025868415833 12.27239990234375 L 0.1000025868415833 36 C 0.1000025868415833 40.90747833251953 4.092522621154785 44.90000152587891 9.000002861022949 44.90000152587891 L 60.00030136108398 44.90000152587891 M 60.00030136108398 45 L 9.000002861022949 45 C 4.029302597045898 45 2.587890548966243e-06 40.97069931030273 2.587890548966243e-06 36 L 2.587890548966243e-06 12.27239990234375 C 2.587890548966243e-06 7.301700115203857 4.029302597045898 3.27239990234375 9.000002861022949 3.27239990234375 L 21.87810325622559 3.27239990234375 L 21.87810325622559 1.999799966812134 C 21.87810325622559 0.8955000042915344 22.77360343933105 -3.552713678800501e-15 23.87790298461914 -3.552713678800501e-15 L 45.9630012512207 -3.552713678800501e-15 C 47.06820297241211 -3.552713678800501e-15 47.96370315551758 0.8955000042915344 47.96370315551758 1.999799966812134 L 47.96370315551758 3.27239990234375 L 60.00030136108398 3.27239990234375 C 64.97010040283203 3.27239990234375 69.00030517578125 7.301700115203857 69.00030517578125 12.27239990234375 L 69.00030517578125 36 C 69.00030517578125 40.97069931030273 64.97010040283203 45 60.00030136108398 45 Z"/></g><ellipse class="c" cx="15.5" cy="16" rx="15.5" ry="16" transform="translate(18.896 8.885)"/><ellipse class="d" cx="10.5" cy="11" rx="10.5" ry="11" transform="translate(23.896 12.885)"/><ellipse cx="3" cy="2.5" rx="3" ry="2.5" transform="translate(6.896 7.885)"/></g></g></svg>