<svg xmlns="http://www.w3.org/2000/svg" width="56" height="43.559" viewBox="0 0 56 43.559"><defs><style>.a{fill:#4ccbf9;}.b{fill:#b1de31;}.c{fill:#f5fddd;}</style></defs><g transform="translate(-88 -580)"><rect class="a" width="56" height="43" rx="8" transform="translate(88 580)"/><path class="b" d="M1209,1489.443l-9.891-16.431s-2.109-3.766-5.724,0-12.087,15.339-12.087,15.339l-7.61-8.707s-1.645-2.4-4.182,0-16.169,7.3-16.169,7.3a8.56,8.56,0,0,0,1.569,7.576,7.924,7.924,0,0,0,4.868,2.4c11.759,1.7,41.616,0,41.616,0s3.545-.6,5.348-2.4S1209,1489.443,1209,1489.443Z" transform="translate(-1065 -874.114)"/><circle class="c" cx="5.5" cy="5.5" r="5.5" transform="translate(94 590)"/></g></svg>