<svg xmlns="http://www.w3.org/2000/svg" viewBox="0 0 17.256 16.931"><defs><style>.a{fill:#f7fddc;}</style></defs><path class="a" d="M16.792,7.364h0L9.751.456A1.61,1.61,0,0,0,7.5.456L.468,7.359l-.007.007a1.54,1.54,0,0,0,0,2.2,1.594,1.594,0,0,0,1.054.455l.049,0h.281v5.083a1.844,1.844,0,0,0,1.86,1.824H6.462a.5.5,0,0,0,.506-.5V12.45a.841.841,0,0,1,.848-.832H9.44a.841.841,0,0,1,.848.832v3.985a.5.5,0,0,0,.506.5h2.754a1.844,1.844,0,0,0,1.86-1.824V10.024h.26a1.594,1.594,0,0,0,1.124-.457,1.54,1.54,0,0,0,0-2.2Zm0,0" transform="translate(0 0.001)"/></svg>