<svg xmlns="http://www.w3.org/2000/svg" viewBox="0 0 34 34"><defs><style>.a{fill:#ff8000;}.b{fill:#f7fddc;}</style></defs><g transform="translate(-287.268 -16)"><circle class="a" cx="17" cy="17" r="17" transform="translate(287.268 16)"/><path class="b" d="M16.313,7.364h0L9.473.456a1.532,1.532,0,0,0-2.183,0L.455,7.359l-.007.007a1.572,1.572,0,0,0,0,2.2,1.527,1.527,0,0,0,1.024.455l.048,0H1.8v5.083A1.817,1.817,0,0,0,3.6,16.931H6.277a.494.494,0,0,0,.491-.5V12.45a.829.829,0,0,1,.824-.832H9.171a.829.829,0,0,1,.824.832v3.985a.494.494,0,0,0,.491.5h2.676a1.817,1.817,0,0,0,1.806-1.824V10.024h.253a1.526,1.526,0,0,0,1.091-.457,1.572,1.572,0,0,0,0-2.2Zm0,0" transform="translate(296.011 25.001)"/></g></svg>