<svg xmlns="http://www.w3.org/2000/svg" xmlns:xlink="http://www.w3.org/1999/xlink" width="35" height="35" viewBox="0 0 35 35"><defs><style>.a{fill:none;stroke:#707070;}.b{fill:#ff8000;}.c{clip-path:url(#a);}.d{fill:#f7fddc;}.e{filter:url(#b);}</style><clipPath id="a"><circle class="a" cx="12.5" cy="12.5" r="12.5" transform="translate(286 14)"/></clipPath><filter id="b" x="-1" y="4" width="36" height="43" filterUnits="userSpaceOnUse"><feOffset dy="3" input="SourceAlpha"/><feGaussianBlur stdDeviation="3" result="c"/><feFlood flood-opacity="0.161"/><feComposite operator="in" in2="c"/><feComposite in="SourceGraphic"/></filter></defs><g transform="translate(-321 -11)"><g transform="translate(321 11)"><circle class="b" cx="17.5" cy="17.5" r="17.5" transform="translate(0)"/></g><g class="c" transform="translate(40)"><g class="e" transform="matrix(1, 0, 0, 1, 281, 11)"><path class="d" d="M-939,17a9,9,0,0,1,6.12-8.529A4.483,4.483,0,0,1-934,5.5,4.5,4.5,0,0,1-929.5,1,4.5,4.5,0,0,1-925,5.5a4.487,4.487,0,0,1-1.39,3.253A9,9,0,0,1-921,17a9,9,0,0,1-9,9A9,9,0,0,1-939,17Z" transform="translate(947 9)"/></g></g></g></svg>