<svg xmlns="http://www.w3.org/2000/svg" xmlns:xlink="http://www.w3.org/1999/xlink" width="53" height="218" viewBox="0 0 53 218"><defs><style>.a{fill:#2c7995;}.a,.b,.c{stroke:#000;stroke-width:0.3px;}.b{fill:#3385a3;}.c{fill:#3790b0;}.d{stroke:none;}.e{fill:none;}.f{filter:url(#a);}</style><filter id="a" x="0" y="0" width="53" height="218" filterUnits="userSpaceOnUse"><feOffset dy="3" input="SourceAlpha"/><feGaussianBlur stdDeviation="3" result="b"/><feFlood flood-opacity="0.161"/><feComposite operator="in" in2="b"/><feComposite in="SourceGraphic"/></filter></defs><g transform="translate(9 6)"><g transform="translate(0 200) rotate(-90)"><g class="f" transform="matrix(0, 1, -1, 0, 206, -9)"><g class="a" transform="translate(9 206) rotate(-90)"><rect class="d" width="200" height="35" rx="8"/><rect class="e" x="0.15" y="0.15" width="199.7" height="34.7" rx="7.85"/></g></g><g class="b" transform="translate(0 27)"><path class="d" d="M0,0H200a0,0,0,0,1,0,0V0a8,8,0,0,1-8,8H8A8,8,0,0,1,0,0V0A0,0,0,0,1,0,0Z"/><path class="e" d="M.294.15H199.706a.144.144,0,0,1,.144.144v0a7.556,7.556,0,0,1-7.556,7.556H7.706A7.556,7.556,0,0,1,.15.294v0A.144.144,0,0,1,.294.15Z"/></g><g class="c" transform="translate(200) rotate(90)"><path class="d" d="M8,0H27a8,8,0,0,1,8,8V8a0,0,0,0,1,0,0H0A0,0,0,0,1,0,8V8A8,8,0,0,1,8,0Z"/><path class="e" d="M7.706.15H27.294A7.556,7.556,0,0,1,34.85,7.706v0a.144.144,0,0,1-.144.144H.294A.144.144,0,0,1,.15,7.706v0A7.556,7.556,0,0,1,7.706.15Z"/></g></g></g></svg>