<svg xmlns="http://www.w3.org/2000/svg" xmlns:xlink="http://www.w3.org/1999/xlink" width="168" height="53.072" viewBox="0 0 168 53.072"><defs><style>.a{fill:#99bf2d;}.a,.b,.c{stroke:#000;stroke-width:0.3px;}.b{fill:#b1de31;}.c{fill:#a6d424;}.d{stroke:none;}.e{fill:none;}.f{filter:url(#a);}</style><filter id="a" x="0" y="0" width="168" height="53.072" filterUnits="userSpaceOnUse"><feOffset dy="3" input="SourceAlpha"/><feGaussianBlur stdDeviation="3" result="b"/><feFlood flood-opacity="0.161"/><feComposite operator="in" in2="b"/><feComposite in="SourceGraphic"/></filter></defs><g transform="translate(9 6)"><g transform="translate(0 35.072) rotate(-90)"><g class="f" transform="matrix(0, 1, -1, 0, 41.07, -9)"><g class="a" transform="translate(159 41.07) rotate(180)"><rect class="d" width="150" height="35.072" rx="8"/><rect class="e" x="0.15" y="0.15" width="149.7" height="34.772" rx="7.85"/></g></g><g class="b" transform="translate(35.072) rotate(90)"><path class="d" d="M8,0H141.73a8,8,0,0,1,8,8v.183a0,0,0,0,1,0,0H0a0,0,0,0,1,0,0V8A8,8,0,0,1,8,0Z"/><path class="e" d="M7.886.15H141.845a7.736,7.736,0,0,1,7.736,7.736v0a.148.148,0,0,1-.148.148H.3A.148.148,0,0,1,.15,7.886v0A7.736,7.736,0,0,1,7.886.15Z"/></g><g class="c" transform="translate(0 141.817)"><path class="d" d="M0,0H35.072a0,0,0,0,1,0,0V.183a8,8,0,0,1-8,8H8a8,8,0,0,1-8-8V0A0,0,0,0,1,0,0Z"/><path class="e" d="M.3.15H34.774A.148.148,0,0,1,34.922.3v0a7.736,7.736,0,0,1-7.736,7.736H7.886A7.736,7.736,0,0,1,.15.3v0A.148.148,0,0,1,.3.15Z"/></g></g></g></svg>