<svg xmlns="http://www.w3.org/2000/svg" width="238.943" height="95.934" viewBox="0 0 238.943 95.934"><defs><style>.a{fill:#2c7995;}.b{fill:none;stroke:#2c7995;stroke-linecap:round;stroke-width:3px;}</style></defs><g transform="translate(2109.177 591.93)"><g transform="translate(-2109.177 -591.93)"><g transform="translate(0 0)"><path class="a" d="M74.916,122.623c1.929.742,2.652-.554,3.865-1.65,9.061-8.164,36.8-45.551,40.326-49.189a2.663,2.663,0,0,0,.375-3.677A10.582,10.582,0,0,0,111.117,64H1.676c-3.268,0-8.24-.192-8.364,4.107S72.987,121.881,74.916,122.623Z" transform="translate(6.688 -63.999)"/><path class="a" d="M115.364,126.66a2.653,2.653,0,0,0-2.842.385c-14.242,18-28.645,37.658-36.463,44.7-4.388,3.961-14.875-.005-14.875-.005s-51.905-31.228-67.8-44.7a2.666,2.666,0,0,0-2.842-.385A2.667,2.667,0,0,0-11,129.078L4.67,196.093a10.67,10.67,0,0,0,10.659,10.659H121.921a10.67,10.67,0,0,0,10.659-10.659l-15.67-67.015A2.663,2.663,0,0,0,115.364,126.66Z" transform="translate(12.978 -110.818)"/></g></g><line class="b" x2="89.748" transform="translate(-1961.482 -581.346)"/><line class="b" x2="62.681" transform="translate(-1952.935 -555.703)"/><line class="b" x2="44.162" transform="translate(-1945.812 -530.061)"/></g></svg>