<svg xmlns="http://www.w3.org/2000/svg" width="68" height="68" viewBox="0 0 68 68"><defs><style>.a{fill:#246076;}.b{fill:#f7fddc;}</style></defs><g transform="translate(-2115 -774)"><path class="a" d="M34,0A34,34,0,1,1,0,34,34,34,0,0,1,34,0Z" transform="translate(2115 774)"/><g transform="translate(2129 793)"><g transform="translate(0 0)"><path class="b" d="M7.214,66.479C12.806,71.216,22.619,79.548,25.5,82.146a1.7,1.7,0,0,0,2.465,0c2.887-2.6,12.7-10.934,18.292-15.67a.848.848,0,0,0,.119-1.171A3.371,3.371,0,0,0,43.715,64H9.759a3.371,3.371,0,0,0-2.664,1.308A.848.848,0,0,0,7.214,66.479Z" transform="translate(-6.363 -64)"/><path class="b" d="M40.254,126.491a.845.845,0,0,0-.905.123c-6.2,5.257-14.117,12-16.607,14.24a3.438,3.438,0,0,1-4.739,0C15.349,138.461,6.46,130.9,1.4,126.613a.849.849,0,0,0-1.4.647v21.348A3.4,3.4,0,0,0,3.4,152H37.351a3.4,3.4,0,0,0,3.4-3.4V127.261A.848.848,0,0,0,40.254,126.491Z" transform="translate(0 -121.445)"/></g></g></g></svg>