<svg xmlns="http://www.w3.org/2000/svg" xmlns:xlink="http://www.w3.org/1999/xlink" width="54" height="70" viewBox="0 0 54 70"><defs><style>.a{fill:none;stroke:#707070;}.b{clip-path:url(#a);}.c{fill:#f7fddc;}.d{filter:url(#b);}</style><clipPath id="a"><rect class="a" width="54" height="70" rx="7" transform="translate(165 147.913)"/></clipPath><filter id="b" x="-9" y="12" width="72" height="92" filterUnits="userSpaceOnUse"><feOffset dy="3" input="SourceAlpha"/><feGaussianBlur stdDeviation="3" result="c"/><feFlood flood-opacity="0.161"/><feComposite operator="in" in2="c"/><feComposite in="SourceGraphic"/></filter></defs><g class="b" transform="translate(-165 -147.913)"><g class="d" transform="matrix(1, 0, 0, 1, 165, 147.91)"><path class="c" d="M0,47.36A26.675,26.675,0,0,1,17.822,22.3a13.174,13.174,0,0,1-3.528-8.979,13.5,13.5,0,0,1,27,0,13.189,13.189,0,0,1-3.958,9.422A26.592,26.592,0,0,1,27,74,26.822,26.822,0,0,1,0,47.36Z" transform="translate(0 18)"/></g></g></svg>