<svg xmlns="http://www.w3.org/2000/svg" viewBox="0 0 304.187 94.835"><defs><style>.a{fill:#ffce09;}.b{fill:#ff8000;}.c{fill:#f7fddc;stroke:#ff8000;}</style></defs><g transform="translate(0 0.542)"><path class="a" d="M284.231-457.354l-3.61-5.991H267.647l4.287,5.991Z" transform="translate(-37.547 483.96)"/><path class="a" d="M284.231-457.354l-3.61-5.991H267.647l4.287,5.991Z" transform="translate(-0.675 483.96)"/><path class="a" d="M271.932-404.229l-5.753-9.589v-49.976l5.753,6.994Z" transform="translate(-37.884 485.086)"/><path class="a" d="M271.932-404.229l-5.753-9.589v-49.976l5.753,6.994Z" transform="translate(-1.012 485.086)"/><path class="a" d="M34.523-351.449l-6.292-12.023v-47.282l6.292,9.342Z" transform="translate(162.027 432.095)"/><path class="a" d="M-129.919-428.227l-5.986-8.342V-422.4l5.986,6.3Z" transform="translate(135.905 457.136)"/><path class="a" d="M-130.61-444.3H-135.9v38.469l5.986,6.3Z" transform="translate(146.551 482.643)"/><path class="a" d="M-135.9-436.569h33.369l4.962,8.15-32.981-.636Z" transform="translate(139.592 457.136)"/><path class="a" d="M-135.9-436.569h33.369l4.962,8.15-32.981-.636Z" transform="translate(327.641 457.136)"/><path class="a" d="M-85.6-403.147l-4.4-8.617-10.727,52.93,4.23,8.692Z" transform="translate(134.945 433.093)"/><path class="a" d="M-93.04-411.384h10.3l4.89,7.942H-89.086Z" transform="translate(139.163 431.951)"/><path class="a" d="M-66.931-402.623l-5.736-7.71v53.055l6.145,6.555Z" transform="translate(142.601 433.421)"/><path class="a" d="M-37.515-399.773c.154.169-.374.7,0,1.155-12.979-8.8-31.254-4.045-31.254-4.045l-5.9-7.647S-48.983-412.36-37.515-399.773Z" transform="translate(144.601 432.169)"/><path class="a" d="M-129.919-428.227l-5.986-8.342V-422.4l5.986,6.3Z" transform="translate(289.539 455.907)"/><path class="a" d="M-130.61-444.3H-135.9v38.469l5.986,6.3Z" transform="translate(298.956 481.414)"/><path class="a" d="M-135.9-436.569h33.369l4.962,8.15-32.981-.636Z" transform="translate(289.539 455.907)"/><path class="b" d="M-26.785-42.157a143.047,143.047,0,0,0-15.857-.787q-8.135.037-15.782.112,0,.075.037.075t.037.075q-.15,1.8-.15,3.749t.037,3.636q.037,1.687.15,2.886a5.559,5.559,0,0,0,.262,1.5,5.641,5.641,0,0,0,1.574.15q1.125,0,2.474.037t2.7.15a6.178,6.178,0,0,1,2.249.562l.075.075q.45,10.5.562,17.919T-48.34.165q-.037,4.761-.112,7.16a20.647,20.647,0,0,0,0,2.7A17.813,17.813,0,0,1-45.529,9.8h3.186q1.612,0,3.224-.037A21.05,21.05,0,0,0-36.157,9.5v-.15q-.15-8.172-.225-14.208t-.15-10.346q-.075-4.311-.112-7.048t-.037-4.423q0-1.687.037-2.474a8.59,8.59,0,0,1,.112-1.162.153.153,0,0,1,.037-.112.153.153,0,0,0,.037-.112h.225q3.524-.15,5.623-.225a14.872,14.872,0,0,1,3.524.225,47.214,47.214,0,0,0,.412-5.923Q-26.635-39.683-26.785-42.157ZM11-.247Q5.9-.1,1.105-.36T-8.642-.622L-8.717-.7q-.15-1.8-.262-4.5a23.135,23.135,0,0,1,.262-4.873,2.726,2.726,0,0,1,1.424-.375q1.05-.075,2.362-.075t2.737-.037a11.047,11.047,0,0,0,2.549-.337Q.28-13.667.43-16.217a24.9,24.9,0,0,0-.225-5.1v-.075q-2.324-.075-4.648-.075t-4.573-.15l-.075-.075A11.727,11.727,0,0,1-9.354-26a30.026,30.026,0,0,0,.187-4.461l.075-.075h.225q2.474-.225,4.948-.225t4.948.037q2.474.037,4.911-.075a28.8,28.8,0,0,0,4.836-.637v-.075q0-2.624.187-5.323a25.2,25.2,0,0,0-.187-5.323,5.777,5.777,0,0,0-1.5-.15q-1.5-.075-3.974-.075t-5.7.075q-3.224.075-6.673.15t-6.86.187q-3.411.112-6.335.262-.375,6.448-.45,12.82t0,12.746q.075,6.373.225,12.783t.15,12.933a131.661,131.661,0,0,0,15.182.337q7.91-.262,15.557-.187a21.1,21.1,0,0,0,.675-4.836Q11.151,2.3,11-.1ZM48.863,3.127a8.173,8.173,0,0,1-.037-1.387Q48.863.952,48.938.2q.075-.825.075-1.649a16.886,16.886,0,0,1-2.137.037q-1.537-.037-3.524-.112t-4.2-.187q-2.212-.112-4.161-.187t-3.411-.112A7.834,7.834,0,0,0,29.6-1.9v-.075q.075-4.8.037-9.934T29.52-22.214q-.075-5.173-.112-10.309t.112-10.009a10.708,10.708,0,0,0-2.774-.675,27.22,27.22,0,0,0-3.524-.225,28.6,28.6,0,0,0-3.374.187,9.856,9.856,0,0,0-2.324.487q.075,5.248.15,9.559t.15,8.135q.075,3.824.075,7.5t-.037,7.61q-.037,3.936-.187,8.472T17.3,8.675v1.35q9.072.15,14.507.15t8.547-.075q3.111-.075,4.423-.15a15.046,15.046,0,0,1,2.137,0q.825,0,1.275-.037t.637-.675a7.854,7.854,0,0,0,.187-2.024Q49.013,5.826,48.863,3.127Zm36.812,0a8.172,8.172,0,0,1-.037-1.387Q85.675.952,85.75.2q.075-.825.075-1.649a16.886,16.886,0,0,1-2.137.037q-1.537-.037-3.524-.112t-4.2-.187q-2.212-.112-4.161-.187t-3.411-.112a7.834,7.834,0,0,0-1.987.112v-.075q.075-4.8.037-9.934t-.112-10.309q-.075-5.173-.112-10.309t.112-10.009a10.708,10.708,0,0,0-2.774-.675,27.22,27.22,0,0,0-3.524-.225,28.6,28.6,0,0,0-3.374.187,9.856,9.856,0,0,0-2.324.487q.075,5.248.15,9.559t.15,8.135q.075,3.824.075,7.5t-.037,7.61q-.037,3.936-.187,8.472T54.111,8.675v1.35q9.072.15,14.507.15t8.547-.075q3.111-.075,4.423-.15a15.046,15.046,0,0,1,2.137,0q.825,0,1.275-.037t.637-.675a7.854,7.854,0,0,0,.187-2.024Q85.825,5.826,85.675,3.127Z" transform="translate(218.362 71.314)"/><path class="b" d="M-10.267-42.823a145.4,145.4,0,0,0-16.117-.8q-8.268.038-16.041.114,0,.076.038.076t.038.076q-.152,1.829-.152,3.81t.038,3.7q.038,1.715.152,2.934a5.649,5.649,0,0,0,.267,1.524,5.733,5.733,0,0,0,1.6.152q1.143,0,2.515.038t2.743.152a6.279,6.279,0,0,1,2.286.572l.076.076q.457,10.668.572,18.212T-32.176.193q-.038,4.839-.114,7.277a20.984,20.984,0,0,0,0,2.743,18.105,18.105,0,0,1,2.972-.229h3.239q1.638,0,3.277-.038a21.394,21.394,0,0,0,3.01-.267V9.528q-.152-8.306-.229-14.44t-.152-10.516q-.076-4.382-.114-7.163t-.038-4.5q0-1.715.038-2.515a8.729,8.729,0,0,1,.114-1.181.155.155,0,0,1,.038-.114.155.155,0,0,0,.038-.114h.229q3.582-.152,5.715-.229a15.116,15.116,0,0,1,3.582.229,47.987,47.987,0,0,0,.419-6.02Q-10.115-40.309-10.267-42.823ZM17.013-16.61q-.3-1.3-.838-3.505t-1.143-4.877q-.61-2.667-1.257-5.563L12.555-36q-.572-2.553-1.067-4.572t-.724-3.01q-2.515.229-4.077.267t-2.553.038h-1.6a8.1,8.1,0,0,0-1.143.076q-1.829,6.1-3.353,12.269t-2.82,11.888q-1.3,5.715-2.248,10.783T-8.667.688q-.686,3.886-1.067,6.325t-.533,2.972a.22.22,0,0,0,.152.076q5.182-.076,7.62.076a13.915,13.915,0,0,0,3.048,0A.155.155,0,0,0,.668,10.1a.155.155,0,0,1,.114-.038A12.027,12.027,0,0,0,1.849,7.089q.381-1.676.724-3.467T3.259.193a14.635,14.635,0,0,1,.876-2.858q.838,0,1.334-.038t.914-.038h.953a10.8,10.8,0,0,1,1.524.152A18.68,18.68,0,0,1,9.85.155q.457,1.6.876,3.353t.838,3.429a26.982,26.982,0,0,0,.876,2.9h.076a30.094,30.094,0,0,0,5.182.648,21.17,21.17,0,0,0,5.029-.343v-.076ZM9.241-11.656q-1.448,0-2.9.038T3.6-11.656q.533-3.886.953-7.239t.762-5.563a9.77,9.77,0,0,1,.762-2.934q.419-.724.838.572a38.5,38.5,0,0,1,.991,4.953Q8.479-18.21,9.241-11.656ZM61.668-27.278a16.377,16.377,0,0,0-1.981-7.392,16.5,16.5,0,0,0-4.458-5.067,19.418,19.418,0,0,0-6.211-3.048,36.016,36.016,0,0,0-7.2-1.334,39.926,39.926,0,0,0-7.392.076,43.6,43.6,0,0,0-6.82,1.219q.229,6.325.267,13.259t.038,13.793V-2.4q0,6.515.229,12.078,1.3.152,3.048.229t3.543.038q1.791-.038,3.429-.152a13.493,13.493,0,0,0,2.705-.419.155.155,0,0,0,.114-.038.155.155,0,0,1,.114-.038V9.223Q40.941,3.66,40.9.384t-.038-5.22V-7.808q0-1.029-.076-2.1a16.6,16.6,0,0,0,7.163-.343,19.169,19.169,0,0,0,6.4-3.086,19.2,19.2,0,0,0,4.839-5.182,16.009,16.009,0,0,0,2.4-6.706,5.787,5.787,0,0,0,.076-.953V-27.2Zm-13.335-3.2a4.724,4.724,0,0,1,1.562,1.524,5.542,5.542,0,0,1,.762,1.981,5.045,5.045,0,0,1-.076,2.134,5.451,5.451,0,0,1-.876,1.905A5.474,5.474,0,0,1,47.532-21.6a12.747,12.747,0,0,1-2.591.572q-1.334.152-2.705.191t-2.591.114h-.229a10.836,10.836,0,0,1-.5-2.553q-.114-1.41-.152-2.934t0-3.048q.038-1.524-.038-2.9a.311.311,0,0,1,.229-.076,12.045,12.045,0,0,1,4.953-.19A9.429,9.429,0,0,1,48.333-30.478Z" transform="translate(49.956 73.584)"/><path class="c" d="M53.406,88.619q.5,0,.5-.125a8.89,8.89,0,0,1-.313-2.758q.063-1.379.063-2.758.125-3.134.125-6.331a15.258,15.258,0,0,0-1-5.7q-8.149,0-15.357.251t-15.608,0q-.5-.251-.439-1.191a10.369,10.369,0,0,1,.376-2.069q.313-1.128.752-2.257t.69-1.755a21.205,21.205,0,0,1,5.453-4.7q3.2-1.943,6.644-3.7l6.9-3.51a32.58,32.58,0,0,0,6.268-4.137A22.639,22.639,0,0,0,53.218,42.3a17.646,17.646,0,0,0,2.319-7.835q.125-2.507,0-5.579t-.251-5.7a32.444,32.444,0,0,0-3.636-12.411A19.821,19.821,0,0,0,43,2.242,32.054,32.054,0,0,0,34.538.3,50.272,50.272,0,0,0,24.2.236a38.05,38.05,0,0,0-9.9,2.257A15.786,15.786,0,0,0,7.146,7.507,26.606,26.606,0,0,0,.94,20.232,43.19,43.19,0,0,0,.878,36.467v.251H1a49.058,49.058,0,0,0,8.588.251q4.325-.251,9.967-.878h.125V35.84q.125-2.257.439-4.889A19.14,19.14,0,0,1,21.375,26a9.5,9.5,0,0,1,2.758-3.824,7.33,7.33,0,0,1,4.827-1.5,6.622,6.622,0,0,1,4.576,2.57,9.475,9.475,0,0,1,1.943,5.077,13.172,13.172,0,0,1-.815,5.767A8.919,8.919,0,0,1,31.091,38.6a53.482,53.482,0,0,1-6.707,4.639q-3.448,2.006-6.9,4.137t-6.77,4.576a41.056,41.056,0,0,0-6.331,5.83,22.375,22.375,0,0,0-2.821,6.958A50.306,50.306,0,0,0,.5,72.384Q.251,76.333.313,80.47A81.481,81.481,0,0,1,0,88.87a.511.511,0,0,0,.125.376H5.767Z" transform="matrix(0.996, 0.087, -0.087, 0.996, 107.328, 0)"/></g></svg>