<svg xmlns="http://www.w3.org/2000/svg" width="227" height="206.496" viewBox="0 0 227 206.496"><defs><style>.a{fill:#ff8000;}.b{fill:#fff;}.c,.d{fill:#222221;}.d{opacity:0.11;mix-blend-mode:multiply;isolation:isolate;}</style></defs><g transform="translate(-326.825 -63.154)"><path class="a" d="M553.1,96.452c-2.428-8.166-12.405-11.239-17.82-3.993-3.173,4.244-3.129,10.1-4.615,15a52.809,52.809,0,0,1-5.368,11.8,67.583,67.583,0,0,0-16.125-12.9c1.015-.084,2.037-.149,3.073-.176,5.737-.147,7.139-7.186,2.78-10.27A48.516,48.516,0,0,0,484.19,87q1.849-3.257,3.7-6.51a5.522,5.522,0,0,0-4.722-8.232,43.1,43.1,0,0,0-20.455,5.079,38.224,38.224,0,0,1,.757-4.713c.955-4.157-2.513-7.241-6.513-6.513a38.481,38.481,0,0,0-21.7,11.93,32.556,32.556,0,0,0-25.465-14.876c-4.628-.305-5.7,5.25-3.395,8.2a40.478,40.478,0,0,1,4.4,7.023,84.074,84.074,0,0,0-38.742.18c-5.693,1.333-4.87,9.021,0,10.734a67.108,67.108,0,0,1,8.254,3.544,123.569,123.569,0,0,0-25.67,13.707c-4.244,2.957-3.068,10.459,2.793,10.312l6.392-.16A125.909,125.909,0,0,0,356.33,128c-4.228-1.615-8.043-3.5-10.168-7.934-2.482-5.175-.3-10.921-1.537-16.353-2.093-9.166-12.86-11.6-16.389-1.957-5.339,14.593,5.075,36.9,21.031,40.124-1.1,2.533-2.138,5.1-3.088,7.728-1.686,4.659,4.042,8.083,7.874,6.052.1-.051.195-.091.293-.142a93.258,93.258,0,0,0-8.628,31.06c-.4,3.868,4.871,6.832,8,4.59a68.706,68.706,0,0,1,6.413-4.084,89.167,89.167,0,0,0,4.939,37.535c1.637,4.566,6.939,4.97,9.714,1.269a59.7,59.7,0,0,1,5.75-6.573,63.37,63.37,0,0,0,15.318,23.592,5.372,5.372,0,0,0,8.885-2.346,24.414,24.414,0,0,1,3.044-6.552,50.13,50.13,0,0,0,7.448,6.379c-2.993,4.4-3.266,10.707-2.169,16.342a13.511,13.511,0,0,0-6.639-.122c-3.162.809-6.948,3.513-6.273,7.252,1.608,8.9,18.546,4.93,23.123,1.358,2.766-2.158.095-5.924-2.755-5.91-2.36-5.67-1.193-10.825.073-16.265a11.139,11.139,0,0,0,4.668.44,9.441,9.441,0,0,0,6.184-3.993,36.161,36.161,0,0,0,1.986-4.83,55.168,55.168,0,0,1,7.292,8.015c1.307,1.757,3.811,3.488,6.166,2.509q3.614-1.5,7.092-3.191a43.083,43.083,0,0,1,.909,19.948,3.977,3.977,0,0,0-.02,1.457c-1.589,2.348.124,6.373,3.328,6.25,5.817-.225,17.655,1.053,16.775-8.341-.607-6.459-6.739-5.979-12.083-4.235a40.553,40.553,0,0,0-2.624-18.333,128.724,128.724,0,0,0,16.08-10.465,12.522,12.522,0,0,0,4.02,5.181c4.882,3.669,10.465,2.811,14.882-1.093,4.984-4.406,8.368-11.143,9.957-17.52.207-.835.955-3.922,1.316-6.49,1.848,1.217,4.2,2.3,5.861,3.3,2.3,1.386,6.25.722,7.424-1.946a39.1,39.1,0,0,0,1.366-29.376l6.648.591c4.575.407,6.373-4.906,4.782-8.332a66.66,66.66,0,0,0-12.8-18.515c1.207-.062,2.417-.122,3.622-.2,4-.258,7.766-4.888,5.019-8.748a74.876,74.876,0,0,0-6.066-7.464c7.477-1.3,14.411-5.781,19.57-11.581C548.588,118.6,556.229,106.971,553.1,96.452Z" transform="translate(0 0)"/><path class="b" d="M370.046,92.674a27.006,27.006,0,0,0,1.449,45.471,11.787,11.787,0,0,0,3.542,1.426,26.1,26.1,0,0,0,7.168,1.855c16.629,1.826,31.7-12.018,31.6-28.792C413.68,91.84,385.99,81.746,370.046,92.674Z" transform="translate(25.77 20.507)"/><path class="b" d="M424.835,89.623c-11.2-2.593-24.417,1.637-30.182,12.049-5.532,9.988-2.549,25.245,8.461,30.22a14.24,14.24,0,0,0,2.729.911,22.753,22.753,0,0,0,9.725,1.875c11.123-.362,20.34-8.639,23.6-19C442.777,104.186,436.691,92.367,424.835,89.623Z" transform="translate(53.29 21.053)"/><path class="c" d="M379.336,98.26c-8.075.225-16.3,7.372-13.06,15.874a1.317,1.317,0,0,0,2.537-.7c-1.451-7,5.817-11.749,12.041-11.236,6.628.549,10.69,5.926,11.272,12.192.22,2.357,3.791,2.453,3.748,0A16.249,16.249,0,0,0,379.336,98.26Z" transform="translate(31.693 28.725)"/><path class="c" d="M410.889,96.838c-7.11-.611-14.092,6.763-11.849,13.869a1.546,1.546,0,0,0,3.022-.409c.18-4.568,3.313-9.645,8.539-9.174,4.828.435,7.284,5.792,6.244,10.023a2.072,2.072,0,0,0,3.991,1.1C423.185,105.535,418.013,97.447,410.889,96.838Z" transform="translate(58.75 27.537)"/><path class="b" d="M380.94,131.955q-1.536-.606-3.069-1.215a2.614,2.614,0,0,0-1.317-.853c-.4-.105-.784-.195-1.175-.278a2.248,2.248,0,0,0-.445-.087c-.08-.016-.162-.024-.242-.038l-.08-.031,0,.018c-.291-.049-.578-.105-.882-.138a3.291,3.291,0,0,0-3.268,2.886,3.19,3.19,0,0,0,.671,2.437,38.441,38.441,0,0,1-.724,4.364c-.662,2.531,2.366,5.4,4.768,3.668l6.55-4.719A3.343,3.343,0,0,0,380.94,131.955Z" transform="translate(35.592 54.149)"/><path class="b" d="M410.443,128.222c-.005.533-.027,1.076-.051,1.624a8.06,8.06,0,0,0-.751-.418c-1.605-.76-4.191.545-3.389,2.608a10.233,10.233,0,0,0,2.313,3.409c.882.913,2.017,1.6,2.869,2.495,1.646,1.726,5.246,1.053,5.682-1.5a57.581,57.581,0,0,0,.376-8.217C417.6,123.689,410.5,123.682,410.443,128.222Z" transform="translate(64.879 50.466)"/><path class="c" d="M461.851,117.8c-10.139,16.505-28.358,25.341-47.46,25.779-18.4.422-41.179-4.942-51.711-21.362-.895-1.395-3.553-.5-2.837,1.2,8.2,19.451,34.2,24.752,53.151,24.423,21.073-.367,41.421-9.461,52.577-27.861C467.014,117.6,463.3,115.44,461.851,117.8Z" transform="translate(26.923 43.886)"/><path class="d" d="M413.747,107.915c-3.686,16.047-15.72,21.593-31.291,21.326-16.505-.284-22.3-12.412-24.437-26.948a.352.352,0,0,0-.675,0c-2.38,15.625,8.3,29.105,23.963,29.925,16.216.847,33.338-5.652,35.188-23.93C416.653,106.715,414.1,106.393,413.747,107.915Z" transform="translate(24.705 31.825)"/><path class="d" d="M439.672,101.228c-2.784,11.569-8.47,21.313-21.111,23.7-13.08,2.469-23.257-6.03-25.767-18.418-.2-.986-1.573-.662-1.649.222-1.186,13.722,12.765,22.557,25.3,21.617,13.516-1.011,26.234-12.751,25.645-26.8A1.237,1.237,0,0,0,439.672,101.228Z" transform="translate(52.581 30.437)"/><path class="d" d="M373.826,84.5c-4.446.495-8.914.72-13.283-.495-4.115-1.144-11-5.859-6.057-10.474.7-.651-.193-1.747-1-1.3-4.711,2.629-4.168,8.6-.569,11.99,5.3,4.993,14.724,5.357,21.355,3.571C376.037,87.324,375.755,84.289,373.826,84.5Z" transform="translate(19.036 7.348)"/><path class="d" d="M365.559,86.717a35.845,35.845,0,0,1-10.492,6.888,28.742,28.742,0,0,1-4.26,1.36,11.213,11.213,0,0,1-4.79.258q-5.226-1.972-2.06-6.17c.462-.313.18-1.22-.409-.971-5.1,2.151-2.695,8.448,1.746,9.768,7.55,2.246,17.486-3.76,22.322-9.076A1.456,1.456,0,0,0,365.559,86.717Z" transform="translate(11.339 18.956)"/><path class="d" d="M364.166,100.89a107.136,107.136,0,0,1-6.908,11.589,52.984,52.984,0,0,1-4.884,5.882c-2.071,2.124-12.729,11.192-13.349-.185a.66.66,0,0,0-1.291-.175c-2.062,7.066,6.741,9.37,11.812,6.844,8.094-4.033,14.653-14.471,17.611-22.7C367.789,100.4,365.05,99.283,364.166,100.89Z" transform="translate(8.677 30.246)"/><path class="d" d="M355.69,124.572a50.329,50.329,0,0,1-4.93,8.23,31.262,31.262,0,0,1-3.086,3.237q-.824.753-1.687,1.458-2.34,2.613-5.682.175a1.036,1.036,0,0,0-2-.549,3.691,3.691,0,0,0,1.557,4.442c2.271,1.5,5.033.307,7.09-.989,5.17-3.259,9.974-8.832,11.778-14.722A1.672,1.672,0,0,0,355.69,124.572Z" transform="translate(9.212 49.603)"/><path class="d" d="M363.541,143.333c-1.4,3.2-2.117,6.635-3.6,9.819-1.3,2.778-6.323,11.3-9.683,6.024a1.039,1.039,0,0,0-1.891.8c1.3,4.324,6.512,3.879,9.4,1.475,4.575-3.808,7.534-11.236,8.537-16.951C366.573,142.956,364.28,141.641,363.541,143.333Z" transform="translate(17.588 64.968)"/><path class="d" d="M379.273,152.35a1.848,1.848,0,0,0-3.693,0,48.843,48.843,0,0,1-1.158,10.976c-.889,3.428-3.586,10.43-8.43,7.164a.282.282,0,0,0-.384.382c2.308,3.411,6.5,2.611,9-.271C378.482,166.12,379.682,158.05,379.273,152.35Z" transform="translate(31.705 71.539)"/><path class="d" d="M418.7,161.252c-6.408,7.588-16.327,7.284-22.157-.331a10.88,10.88,0,0,0-1.011-7.7c-1.164-2.033-3.835-.555-3.528,1.487.651,4.324.545,8.486-3.226,11.456-3.719,2.929-8.376,2.238-12.23.069a1.251,1.251,0,0,0-1.509,1.957c4.3,4.195,11.545,4.417,16.344.931a13.449,13.449,0,0,0,4.311-5.548c5.766,9.128,19.557,9.392,26.038.024C422.964,161.806,420.115,159.575,418.7,161.252Z" transform="translate(39.152 72.91)"/><path class="d" d="M432.671,155.917c-6.483,10.561-21.87,7.07-22.092-5.752a1.5,1.5,0,0,0-2.993,0c-1.226,16.051,21.47,22.588,28.129,7.53C436.614,155.666,433.888,153.937,432.671,155.917Z" transform="translate(66.055 70.028)"/><path class="d" d="M441.416,140.451c-.649,3.815-3.317,7.548-7.566,7.624-4.319.078-7.233-3.613-8.1-7.475-.315-1.411-2.393-1.033-2.444.331a10.873,10.873,0,0,0,10.543,10.927,11.246,11.246,0,0,0,11.083-10.932C444.957,138.966,441.764,138.417,441.416,140.451Z" transform="translate(78.954 62.207)"/><path class="d" d="M450.3,124.545c-.387-1.693-2.775-1.191-2.886.389-.324,4.6-5.031,4.961-8.561,3.779a18.133,18.133,0,0,1-6.874-4.479c-1.129-1.1-2.6.507-1.68,1.68,3.017,3.85,8.125,6.926,13.167,6.617C447.606,132.277,451.279,128.829,450.3,124.545Z" transform="translate(84.444 49.378)"/><path class="d" d="M442.614,106.737a1.511,1.511,0,0,0-.358,2.735,2.093,2.093,0,0,1,1.138,2.944c-.817,1.684-3.091,1.829-4.766,1.777-3.308-.105-6.515-1.246-9.65-2.18-1.122-.335-1.882,1.371-.809,1.917,4.461,2.271,13.129,5.682,17.531,1.567C448.713,112.68,447.505,105.828,442.614,106.737Z" transform="translate(82.515 35.6)"/><path class="d" d="M442.294,92.392c-1.173-.851-2.635.787-1.933,1.933,2.149,3.5,6.7,8.483,1.895,11.916a9.724,9.724,0,0,1-6.2,1.507c-1.187-.04-7.261-.2-7.132-2.4.08-1.351-2.148-1.684-2.391-.324-1.226,6.888,12.652,6.763,16.5,4.977C451.343,106.145,448.4,96.829,442.294,92.392Z" transform="translate(81.538 23.735)"/><path class="d" d="M438.782,80.449a1.546,1.546,0,0,0-2.417,1.864c1.895,4.342-1.558,7.3-5.612,8.039a11.647,11.647,0,0,1-9.576-2.593c-1.2-.987-2.922.646-1.742,1.74a14.472,14.472,0,0,0,15.4,3.031C439.206,90.672,443.586,84.347,438.782,80.449Z" transform="translate(75.468 13.816)"/><path class="d" d="M414.372,69.833a.789.789,0,0,0,.762,1.309,4.708,4.708,0,0,1,6.153,3.3c.813,3.02-1.5,5.739-3.8,7.434-3.74,2.757-8.532,3.666-12.478,6.088-2.006,1.231-.187,4.371,1.849,3.164,6.175-3.662,16.746-5.946,17.52-14.707C424.8,71.668,418.665,65.384,414.372,69.833Z" transform="translate(63.274 4.223)"/><path class="d" d="M404.121,67.263c-1.736-2.644-6.022-4.335-8.319-1.458-.707.886.173,2.331,1.287,1.669,2.044-1.215,4.537.529,4.813,2.728.367,2.908-1.8,5.217-2.915,7.681-.662,1.467,1.1,3.162,2.371,1.831C404.256,76.684,406.689,71.172,404.121,67.263Z" transform="translate(56.242 0.941)"/><path class="d" d="M377.389,78.866c-4.215-4.046-4.164-8.63-2.346-13.789a1.239,1.239,0,0,0-2.057-1.2c-4.668,4.877-2.435,13.662,2.622,17.293C376.977,82.156,378.573,80,377.389,78.866Z" transform="translate(35.687 0.313)"/><path class="d" d="M399.448,149.875c-2.18,2.551-4.235,5.486-7.59,6.573-3.63,1.175-8.861-1.157-8.041-5.628a1.5,1.5,0,0,0-2.426-1.457,1.613,1.613,0,0,0-1.811.813c-2.1,3.766-6.8,13.363-11.818,6.513-3.511-4.8.758-10.83,3.068-15.089.7-1.293-1.1-2.871-2.131-1.644-.053.064-.105.133-.158.2a1.13,1.13,0,0,0-.951.644c-1.007,1.977-4.033,3.268-5.819,1.413-1.857-1.927-.051-5.244,2.18-5.843,1.291-.345,1.076-2.488-.324-2.389-4.673.327-7.359,6.466-4.217,10.079a6.153,6.153,0,0,0,5.379,1.9c-2.535,5.21-3.291,11.269,1.917,15.251,5.941,4.542,11.8-.515,14.7-6.053a9.478,9.478,0,0,0,6.875,5.21c5.742,1.058,11.4-3.58,13.934-8.354C403.111,150.326,400.8,148.287,399.448,149.875Z" transform="translate(25.557 57.959)"/><path class="d" d="M442.384,129.005c-1.846-.191-3.038,2.622-1.573,3.795,2.168,1.737-.72,4.213-2.431,4.953a7.337,7.337,0,0,1-7.332-.878,1.814,1.814,0,0,0-2.668.815c-1.511-.062-3.066,1.748-1.578,3.011,1.535,1.3,3.031,2.324,3.722,4.315a6.527,6.527,0,0,1-.724,6c-2.848,3.686-8.541,2.1-10.777-1.3-.918-1.395-3.388-.7-3.2.893a1.487,1.487,0,0,0-1.478.8c-1.918,3.835-1.251,8.721-6.364,10.341-4.279,1.355-7.635-2.764-4.875-6.452.82-1.1-.74-2.418-1.8-1.8-5.7,3.342-1.766,11.592,3.777,12.33a10.426,10.426,0,0,0,9.021-3.617,14.633,14.633,0,0,0,3.52-8.466c3.708,4.066,10.878,4.661,14.907.52a10.218,10.218,0,0,0,2.409-9.137,11.835,11.835,0,0,0-.866-2.58A11.308,11.308,0,0,0,443,140.519C446.63,137.775,448.828,129.673,442.384,129.005Z" transform="translate(58.677 53.884)"/></g></svg>