<svg xmlns="http://www.w3.org/2000/svg" width="68" height="68" viewBox="0 0 68 68"><defs><style>.a{fill:#ff8000;}.b{fill:#f7fddc;}</style></defs><g transform="translate(-126 -727)"><circle class="a" cx="34" cy="34" r="34" transform="translate(126 727)"/><g transform="translate(76.913 746)"><g transform="translate(73.087)"><path class="b" d="M151.893,20.569a5.729,5.729,0,0,0,5.713-5.713V5.714a5.5,5.5,0,0,0-1.678-4.035,5.69,5.69,0,0,0-8.07,0,5.5,5.5,0,0,0-1.678,4.035v9.142a5.73,5.73,0,0,0,5.714,5.713Z" transform="translate(-141.608)"/><path class="b" d="M93.317,183.063a1.142,1.142,0,0,0-1.946.8v2.286a8,8,0,0,1-16,0v-2.286a1.143,1.143,0,0,0-2.286,0v2.286a10.283,10.283,0,0,0,9.142,10.213v2.357H77.658a1.143,1.143,0,0,0,0,2.286H89.085a1.143,1.143,0,0,0,0-2.286h-4.57v-2.357a10.284,10.284,0,0,0,9.142-10.213v-2.286A1.1,1.1,0,0,0,93.317,183.063Z" transform="translate(-73.087 -171.297)"/></g></g></g></svg>