<svg xmlns="http://www.w3.org/2000/svg" width="87" height="87" viewBox="0 0 87 87"><defs><style>.a{fill:red;}.b{fill:#f7fddc;}</style></defs><g transform="translate(-212 -550)"><circle class="a" cx="43.5" cy="43.5" r="43.5" transform="translate(212 550)"/><g transform="translate(233.802 566.095)"><g transform="translate(0 0)"><path class="b" d="M165.615,155.344a13.319,13.319,0,1,1-10.431-22.67l-1.693,4.988a4.208,4.208,0,0,0,5.845,5.126l11.115-5.482a4.207,4.207,0,0,0,1.912-5.635l-5.481-11.115a4.207,4.207,0,0,0-7.758.508l-1.088,3.205c-.671-.056-1.348-.083-2.03-.077a21.728,21.728,0,1,0,15.558,37.1,4.207,4.207,0,1,0-5.95-5.95Z" transform="translate(-134.463 -118.211)"/></g></g></g></svg>